<ttFont>
<head>
    <!-- Most of this table will be recalculated by the compiler -->
    <tableVersion value="1.0"/>
    <fontRevision value="1.0"/>
    <checkSumAdjustment value="0xdb7065e1"/>
    <magicNumber value="0x5f0f3cf5"/>
    <flags value="00000000 00011001"/>
    <unitsPerEm value="1000"/>
    <created value="Thu Jun  9 01:52:59 2011"/>
    <modified value="Wed Nov 18 04:19:37 2015"/>
    <xMin value="0"/>
    <yMin value="0"/>
    <xMax value="859"/>
    <yMax value="870"/>
    <macStyle value="00000000 00000000"/>
    <lowestRecPPEM value="9"/>
    <fontDirectionHint value="2"/>
    <indexToLocFormat value="0"/>
    <glyphDataFormat value="0"/>
  </head>
    <TTGlyph name="A" xMin="147" yMin="278" xMax="525" yMax="678">
      <contour>
        <pt x="439" y="584" on="1"/>
        <pt x="439" y="601" on="0"/>
        <pt x="430" y="628" on="0"/>
        <pt x="419" y="637" on="1"/>
        <pt x="489" y="678" on="1"/>
        <pt x="500" y="670" on="0"/>
        <pt x="525" y="628" on="0"/>
        <pt x="525" y="588" on="1"/>
        <pt x="525" y="278" on="1"/>
        <pt x="513" y="283" on="0"/>
        <pt x="501" y="283" on="1"/>
        <pt x="475" y="283" on="0"/>
        <pt x="439" y="319" on="0"/>
        <pt x="439" y="345" on="1"/>
      </contour>
      <contour>
        <pt x="147" y="584" on="1"/>
        <pt x="147" y="601" on="0"/>
        <pt x="157" y="628" on="0"/>
        <pt x="168" y="637" on="1"/>
        <pt x="247" y="591" on="1"/>
        <pt x="233" y="581" on="0"/>
        <pt x="233" y="566" on="1"/>
        <pt x="233" y="278" on="1"/>
        <pt x="223" y="283" on="0"/>
        <pt x="209" y="283" on="1"/>
        <pt x="183" y="283" on="0"/>
        <pt x="147" y="319" on="0"/>
        <pt x="147" y="345" on="1"/>
      </contour>
    </TTGlyph>
    <TTGlyph name="B" xMin="147" yMin="278" xMax="525" yMax="671">
      <contour>
        <pt x="233" y="457" on="1"/>
        <pt x="147" y="408" on="1"/>
        <pt x="233" y="358" on="1"/>
        <pt x="233" y="278" on="1"/>
        <pt x="223" y="283" on="0"/>
        <pt x="209" y="283" on="1"/>
        <pt x="183" y="283" on="0"/>
        <pt x="147" y="319" on="0"/>
        <pt x="147" y="345" on="1"/>
        <pt x="147" y="650" on="1"/>
        <pt x="233" y="600" on="1"/>
      </contour>
      <contour>
        <pt x="501" y="283" on="1"/>
        <pt x="475" y="283" on="0"/>
        <pt x="439" y="319" on="0"/>
        <pt x="439" y="345" on="1"/>
        <pt x="438" y="357" on="1"/>
        <pt x="497" y="391" on="1"/>
        <pt x="525" y="370" on="0"/>
        <pt x="525" y="335" on="1"/>
        <pt x="525" y="278" on="1"/>
        <pt x="522" y="279" on="0"/>
        <pt x="518" y="280" on="1"/>
        <pt x="515" y="281" on="0"/>
        <pt x="506" y="283" on="0"/>
      </contour>
      <contour>
        <pt x="492" y="671" on="1"/>
        <pt x="504" y="660" on="0"/>
        <pt x="518" y="637" on="0"/>
        <pt x="524" y="615" on="0"/>
        <pt x="525" y="595" on="0"/>
        <pt x="525" y="589" on="1"/>
        <pt x="525" y="480" on="1"/>
        <pt x="525" y="464" on="0"/>
        <pt x="511" y="435" on="0"/>
        <pt x="497" y="425" on="1"/>
        <pt x="437" y="459" on="1"/>
        <pt x="439" y="464" on="0"/>
        <pt x="439" y="469" on="0"/>
        <pt x="439" y="475" on="1"/>
        <pt x="439" y="574" on="1"/>
        <pt x="439" y="588" on="0"/>
        <pt x="432" y="617" on="0"/>
        <pt x="418" y="629" on="1"/>
      </contour>
    </TTGlyph>
    <TTGlyph name="C" xMin="147" yMin="278" xMax="442" yMax="700">
      <contour>
        <pt x="442" y="700" on="1"/>
        <pt x="442" y="600" on="1"/>
        <pt x="402" y="650" on="1"/>
      </contour>
      <contour>
        <pt x="233" y="278" on="1"/>
        <pt x="220" y="283" on="0"/>
        <pt x="209" y="283" on="1"/>
        <pt x="183" y="283" on="0"/>
        <pt x="147" y="319" on="0"/>
        <pt x="147" y="345" on="1"/>
        <pt x="147" y="552" on="1"/>
        <pt x="147" y="574" on="0"/>
        <pt x="162" y="613" on="0"/>
        <pt x="176" y="624" on="1"/>
        <pt x="249" y="583" on="1"/>
        <pt x="243" y="577" on="0"/>
        <pt x="237" y="563" on="0"/>
        <pt x="235" y="558" on="1"/>
        <pt x="233" y="552" on="0"/>
        <pt x="233" y="546" on="1"/>
      </contour>
    </TTGlyph>
    <TTGlyph name="D" xMin="147" yMin="278" xMax="525" yMax="656">
      <contour>
        <pt x="233" y="278" on="1"/>
        <pt x="223" y="283" on="0"/>
        <pt x="209" y="283" on="1"/>
        <pt x="183" y="283" on="0"/>
        <pt x="147" y="319" on="0"/>
        <pt x="147" y="345" on="1"/>
        <pt x="147" y="650" on="1"/>
        <pt x="233" y="600" on="1"/>
      </contour>
      <contour>
        <pt x="484" y="656" on="1"/>
        <pt x="505" y="636" on="0"/>
        <pt x="525" y="586" on="0"/>
        <pt x="525" y="558" on="1"/>
        <pt x="525" y="278" on="1"/>
        <pt x="513" y="283" on="0"/>
        <pt x="501" y="283" on="1"/>
        <pt x="475" y="283" on="0"/>
        <pt x="437" y="319" on="0"/>
        <pt x="439" y="345" on="1"/>
        <pt x="439" y="541" on="1"/>
        <pt x="439" y="561" on="0"/>
        <pt x="430" y="604" on="0"/>
        <pt x="416" y="617" on="1"/>
      </contour>
    </TTGlyph>
    <TTGlyph name="E" xMin="147" yMin="278" xMax="469" yMax="690">
      <contour>
        <pt x="419" y="435" on="1"/>
        <pt x="419" y="335" on="1"/>
        <pt x="379" y="385" on="1"/>
      </contour>
      <contour>
        <pt x="469" y="690" on="1"/>
        <pt x="469" y="590" on="1"/>
        <pt x="429" y="640" on="1"/>
      </contour>
      <contour>
        <pt x="233" y="278" on="1"/>
        <pt x="221" y="283" on="0"/>
        <pt x="209" y="283" on="1"/>
        <pt x="183" y="283" on="0"/>
        <pt x="147" y="319" on="0"/>
        <pt x="147" y="345" on="1"/>
        <pt x="147" y="640" on="1"/>
        <pt x="233" y="590" on="1"/>
        <pt x="233" y="435" on="1"/>
        <pt x="147" y="385" on="1"/>
        <pt x="233" y="335" on="1"/>
      </contour>
    </TTGlyph>
    <TTGlyph name="Euro" xMin="62" yMin="0" xMax="96" yMax="733">
      <contour>
        <pt x="62" y="733" on="1"/>
        <pt x="96" y="733" on="1"/>
        <pt x="96" y="0" on="1"/>
        <pt x="62" y="0" on="1"/>
      </contour>
    </TTGlyph>
    <TTGlyph name="F" xMin="147" yMin="278" xMax="469" yMax="690">
      <contour>
        <pt x="419" y="435" on="1"/>
        <pt x="419" y="335" on="1"/>
        <pt x="379" y="385" on="1"/>
      </contour>
      <contour>
        <pt x="469" y="690" on="1"/>
        <pt x="469" y="590" on="1"/>
        <pt x="429" y="640" on="1"/>
      </contour>
      <contour>
        <pt x="233" y="435" on="1"/>
        <pt x="147" y="385" on="1"/>
        <pt x="233" y="335" on="1"/>
        <pt x="233" y="278" on="1"/>
        <pt x="223" y="283" on="0"/>
        <pt x="209" y="283" on="1"/>
        <pt x="183" y="283" on="0"/>
        <pt x="147" y="319" on="0"/>
        <pt x="147" y="345" on="1"/>
        <pt x="147" y="640" on="1"/>
        <pt x="233" y="590" on="1"/>
      </contour>
    </TTGlyph>
    <TTGlyph name="G" xMin="147" yMin="278" xMax="525" yMax="700">
      <contour>
        <pt x="501" y="283" on="1"/>
        <pt x="475" y="283" on="0"/>
        <pt x="439" y="319" on="0"/>
        <pt x="439" y="345" on="1"/>
        <pt x="439" y="407" on="1"/>
        <pt x="525" y="457" on="1"/>
        <pt x="525" y="278" on="1"/>
        <pt x="513" y="283" on="0"/>
      </contour>
      <contour>
        <pt x="233" y="278" on="1"/>
        <pt x="221" y="283" on="0"/>
        <pt x="209" y="283" on="1"/>
        <pt x="183" y="283" on="0"/>
        <pt x="147" y="319" on="0"/>
        <pt x="147" y="345" on="1"/>
        <pt x="147" y="544" on="1"/>
        <pt x="147" y="554" on="0"/>
        <pt x="149" y="565" on="1"/>
        <pt x="151" y="574" on="0"/>
        <pt x="156" y="595" on="0"/>
        <pt x="162" y="606" on="1"/>
        <pt x="238" y="571" on="1"/>
        <pt x="236" y="567" on="0"/>
        <pt x="235" y="559" on="0"/>
        <pt x="234" y="555" on="1"/>
        <pt x="233" y="551" on="0"/>
        <pt x="233" y="546" on="1"/>
      </contour>
      <contour>
        <pt x="485" y="650" on="1"/>
        <pt x="525" y="700" on="1"/>
        <pt x="525" y="600" on="1"/>
      </contour>
    </TTGlyph>
    <TTGlyph name="H" xMin="147" yMin="278" xMax="525" yMax="690">
      <contour>
        <pt x="233" y="445" on="1"/>
        <pt x="147" y="395" on="1"/>
        <pt x="233" y="345" on="1"/>
        <pt x="233" y="278" on="1"/>
        <pt x="223" y="283" on="0"/>
        <pt x="209" y="283" on="1"/>
        <pt x="183" y="283" on="0"/>
        <pt x="147" y="319" on="0"/>
        <pt x="147" y="345" on="1"/>
        <pt x="147" y="620" on="1"/>
        <pt x="233" y="690" on="1"/>
      </contour>
      <contour>
        <pt x="525" y="278" on="1"/>
        <pt x="515" y="283" on="0"/>
        <pt x="501" y="283" on="1"/>
        <pt x="475" y="283" on="0"/>
        <pt x="439" y="319" on="0"/>
        <pt x="439" y="345" on="1"/>
        <pt x="439" y="620" on="1"/>
        <pt x="525" y="690" on="1"/>
      </contour>
    </TTGlyph>
    <TTGlyph name="I" xMin="147" yMin="279" xMax="233" yMax="690">
      <contour>
        <pt x="233" y="279" on="1"/>
        <pt x="223" y="284" on="0"/>
        <pt x="209" y="284" on="1"/>
        <pt x="183" y="284" on="0"/>
        <pt x="147" y="320" on="0"/>
        <pt x="147" y="346" on="1"/>
        <pt x="147" y="620" on="1"/>
        <pt x="233" y="690" on="1"/>
      </contour>
    </TTGlyph>
    <TTGlyph name="J" xMin="155" yMin="278" xMax="241" yMax="690">
      <contour>
        <pt x="241" y="278" on="1"/>
        <pt x="231" y="283" on="0"/>
        <pt x="217" y="283" on="1"/>
        <pt x="191" y="283" on="0"/>
        <pt x="155" y="319" on="0"/>
        <pt x="155" y="345" on="1"/>
        <pt x="155" y="620" on="1"/>
        <pt x="241" y="690" on="1"/>
      </contour>
    </TTGlyph>
    <TTGlyph name="K" xMin="147" yMin="278" xMax="571" yMax="690">
      <contour>
        <pt x="330" y="420" on="1"/>
        <pt x="424" y="420" on="1"/>
        <pt x="469" y="312" on="1"/>
        <pt x="457" y="312" on="0"/>
        <pt x="446" y="308" on="1"/>
        <pt x="442" y="306" on="0"/>
        <pt x="433" y="304" on="0"/>
        <pt x="424" y="304" on="1"/>
        <pt x="405" y="304" on="0"/>
        <pt x="374" y="327" on="0"/>
        <pt x="364" y="344" on="1"/>
      </contour>
      <contour>
        <pt x="446" y="620" on="1"/>
        <pt x="571" y="690" on="1"/>
        <pt x="424" y="420" on="1"/>
        <pt x="330" y="420" on="1"/>
      </contour>
      <contour>
        <pt x="233" y="278" on="1"/>
        <pt x="223" y="283" on="0"/>
        <pt x="209" y="283" on="1"/>
        <pt x="183" y="283" on="0"/>
        <pt x="147" y="319" on="0"/>
        <pt x="147" y="345" on="1"/>
        <pt x="147" y="620" on="1"/>
        <pt x="233" y="690" on="1"/>
      </contour>
    </TTGlyph>
    <TTGlyph name="L" xMin="147" yMin="278" xMax="233" yMax="690">
      <contour>
        <pt x="233" y="278" on="1"/>
        <pt x="220" y="283" on="0"/>
        <pt x="209" y="283" on="1"/>
        <pt x="183" y="283" on="0"/>
        <pt x="147" y="319" on="0"/>
        <pt x="147" y="345" on="1"/>
        <pt x="147" y="620" on="1"/>
        <pt x="233" y="690" on="1"/>
      </contour>
    </TTGlyph>
    <TTGlyph name="M" xMin="147" yMin="278" xMax="817" yMax="690">
      <contour>
        <pt x="439" y="476" on="1"/>
        <pt x="525" y="442" on="1"/>
        <pt x="525" y="278" on="1"/>
        <pt x="513" y="283" on="0"/>
        <pt x="501" y="283" on="1"/>
        <pt x="475" y="283" on="0"/>
        <pt x="439" y="319" on="0"/>
        <pt x="439" y="345" on="1"/>
      </contour>
      <contour>
        <pt x="439" y="476" on="1"/>
        <pt x="272" y="621" on="1"/>
        <pt x="310" y="690" on="1"/>
        <pt x="439" y="574" on="1"/>
      </contour>
      <contour>
        <pt x="233" y="278" on="1"/>
        <pt x="221" y="283" on="0"/>
        <pt x="209" y="283" on="1"/>
        <pt x="183" y="283" on="0"/>
        <pt x="147" y="319" on="0"/>
        <pt x="147" y="345" on="1"/>
        <pt x="147" y="621" on="1"/>
        <pt x="233" y="553" on="1"/>
      </contour>
      <contour>
        <pt x="439" y="476" on="1"/>
        <pt x="607" y="621" on="1"/>
        <pt x="645" y="553" on="1"/>
        <pt x="525" y="442" on="1"/>
      </contour>
      <contour>
        <pt x="731" y="621" on="1"/>
        <pt x="817" y="690" on="1"/>
        <pt x="817" y="278" on="1"/>
        <pt x="805" y="283" on="0"/>
        <pt x="793" y="283" on="1"/>
        <pt x="767" y="283" on="0"/>
        <pt x="731" y="319" on="0"/>
        <pt x="731" y="345" on="1"/>
      </contour>
    </TTGlyph>
    <TTGlyph name="N" xMin="147" yMin="278" xMax="671" yMax="690">
      <contour>
        <pt x="233" y="278" on="1"/>
        <pt x="221" y="283" on="0"/>
        <pt x="209" y="283" on="1"/>
        <pt x="183" y="283" on="0"/>
        <pt x="147" y="319" on="0"/>
        <pt x="147" y="345" on="1"/>
        <pt x="147" y="640" on="1"/>
        <pt x="233" y="590" on="1"/>
      </contour>
      <contour>
        <pt x="585" y="620" on="1"/>
        <pt x="671" y="690" on="1"/>
        <pt x="671" y="278" on="1"/>
        <pt x="659" y="283" on="0"/>
        <pt x="647" y="283" on="1"/>
        <pt x="621" y="283" on="0"/>
        <pt x="585" y="319" on="0"/>
        <pt x="585" y="345" on="1"/>
      </contour>
      <contour>
        <pt x="482" y="283" on="1"/>
        <pt x="420" y="283" on="1"/>
        <pt x="294" y="640" on="1"/>
        <pt x="355" y="690" on="1"/>
      </contour>
    </TTGlyph>
    <TTGlyph name="O" xMin="147" yMin="277" xMax="575" yMax="656">
      <contour>
        <pt x="575" y="278" on="1"/>
        <pt x="563" y="283" on="0"/>
        <pt x="551" y="283" on="1"/>
        <pt x="525" y="283" on="0"/>
        <pt x="489" y="319" on="0"/>
        <pt x="489" y="345" on="1"/>
        <pt x="489" y="542" on="1"/>
        <pt x="489" y="559" on="0"/>
        <pt x="481" y="600" on="0"/>
        <pt x="466" y="617" on="1"/>
        <pt x="534" y="656" on="1"/>
        <pt x="555" y="636" on="0"/>
        <pt x="575" y="586" on="0"/>
        <pt x="575" y="558" on="1"/>
      </contour>
      <contour>
        <pt x="147" y="542" on="1"/>
        <pt x="147" y="559" on="0"/>
        <pt x="156" y="600" on="0"/>
        <pt x="170" y="617" on="1"/>
        <pt x="242" y="577" on="1"/>
        <pt x="236" y="569" on="0"/>
        <pt x="233" y="547" on="0"/>
        <pt x="233" y="540" on="1"/>
        <pt x="233" y="277" on="1"/>
        <pt x="227" y="280" on="0"/>
        <pt x="212" y="282" on="0"/>
        <pt x="209" y="282" on="1"/>
        <pt x="183" y="282" on="0"/>
        <pt x="147" y="319" on="0"/>
        <pt x="147" y="345" on="1"/>
      </contour>
    </TTGlyph>
    <TTGlyph name="P" xMin="147" yMin="278" xMax="525" yMax="664">
      <contour>
        <pt x="233" y="600" on="1"/>
        <pt x="233" y="278" on="1"/>
        <pt x="223" y="283" on="0"/>
        <pt x="209" y="283" on="1"/>
        <pt x="183" y="283" on="0"/>
        <pt x="147" y="319" on="0"/>
        <pt x="147" y="345" on="1"/>
        <pt x="147" y="650" on="1"/>
      </contour>
      <contour>
        <pt x="525" y="352" on="1"/>
        <pt x="513" y="357" on="0"/>
        <pt x="501" y="357" on="1"/>
        <pt x="475" y="357" on="0"/>
        <pt x="439" y="393" on="0"/>
        <pt x="439" y="419" on="1"/>
        <pt x="439" y="553" on="1"/>
        <pt x="439" y="572" on="0"/>
        <pt x="426" y="611" on="0"/>
        <pt x="410" y="625" on="1"/>
        <pt x="478" y="664" on="1"/>
        <pt x="493" y="652" on="0"/>
        <pt x="511" y="621" on="0"/>
        <pt x="521" y="590" on="0"/>
        <pt x="525" y="561" on="0"/>
        <pt x="525" y="551" on="1"/>
      </contour>
    </TTGlyph>
    <TTGlyph name="Q" xMin="147" yMin="277" xMax="575" yMax="656">
      <contour>
        <pt x="575" y="278" on="1"/>
        <pt x="563" y="283" on="0"/>
        <pt x="551" y="283" on="1"/>
        <pt x="525" y="283" on="0"/>
        <pt x="489" y="319" on="0"/>
        <pt x="489" y="345" on="1"/>
        <pt x="489" y="552" on="1"/>
        <pt x="489" y="569" on="0"/>
        <pt x="479" y="604" on="0"/>
        <pt x="466" y="617" on="1"/>
        <pt x="534" y="656" on="1"/>
        <pt x="555" y="636" on="0"/>
        <pt x="575" y="586" on="0"/>
        <pt x="575" y="558" on="1"/>
      </contour>
      <contour>
        <pt x="147" y="552" on="1"/>
        <pt x="147" y="569" on="0"/>
        <pt x="157" y="604" on="0"/>
        <pt x="170" y="617" on="1"/>
        <pt x="242" y="577" on="1"/>
        <pt x="236" y="569" on="0"/>
        <pt x="233" y="547" on="0"/>
        <pt x="233" y="540" on="1"/>
        <pt x="233" y="277" on="1"/>
        <pt x="227" y="280" on="0"/>
        <pt x="212" y="282" on="0"/>
        <pt x="209" y="282" on="1"/>
        <pt x="183" y="282" on="0"/>
        <pt x="147" y="319" on="0"/>
        <pt x="147" y="345" on="1"/>
      </contour>
    </TTGlyph>
    <TTGlyph name="R" xMin="147" yMin="279" xMax="525" yMax="664">
      <contour>
        <pt x="233" y="600" on="1"/>
        <pt x="233" y="279" on="1"/>
        <pt x="225" y="283" on="0"/>
        <pt x="209" y="283" on="1"/>
        <pt x="183" y="283" on="0"/>
        <pt x="147" y="319" on="0"/>
        <pt x="147" y="345" on="1"/>
        <pt x="147" y="650" on="1"/>
      </contour>
      <contour>
        <pt x="525" y="352" on="1"/>
        <pt x="512" y="357" on="0"/>
        <pt x="501" y="357" on="1"/>
        <pt x="475" y="357" on="0"/>
        <pt x="439" y="393" on="0"/>
        <pt x="439" y="419" on="1"/>
        <pt x="439" y="553" on="1"/>
        <pt x="439" y="572" on="0"/>
        <pt x="426" y="611" on="0"/>
        <pt x="410" y="625" on="1"/>
        <pt x="478" y="664" on="1"/>
        <pt x="493" y="652" on="0"/>
        <pt x="511" y="621" on="0"/>
        <pt x="521" y="590" on="0"/>
        <pt x="525" y="561" on="0"/>
        <pt x="525" y="551" on="1"/>
      </contour>
    </TTGlyph>
    <TTGlyph name="S" xMin="121" yMin="278" xMax="499" yMax="663">
      <contour>
        <pt x="499" y="278" on="1"/>
        <pt x="487" y="283" on="0"/>
        <pt x="475" y="283" on="1"/>
        <pt x="449" y="283" on="0"/>
        <pt x="413" y="317" on="0"/>
        <pt x="413" y="343" on="1"/>
        <pt x="413" y="354" on="0"/>
        <pt x="402" y="363" on="1"/>
        <pt x="463" y="402" on="1"/>
        <pt x="479" y="391" on="0"/>
        <pt x="499" y="358" on="0"/>
        <pt x="499" y="337" on="1"/>
      </contour>
      <contour>
        <pt x="413" y="567" on="1"/>
        <pt x="413" y="580" on="0"/>
        <pt x="405" y="613" on="0"/>
        <pt x="389" y="626" on="1"/>
        <pt x="452" y="663" on="1"/>
        <pt x="466" y="651" on="0"/>
        <pt x="484" y="621" on="0"/>
        <pt x="495" y="591" on="0"/>
        <pt x="499" y="563" on="0"/>
        <pt x="499" y="553" on="1"/>
        <pt x="499" y="498" on="1"/>
      </contour>
      <contour>
        <pt x="219" y="441" on="1"/>
        <pt x="143" y="391" on="1"/>
        <pt x="129" y="405" on="0"/>
        <pt x="121" y="435" on="0"/>
        <pt x="121" y="448" on="1"/>
        <pt x="121" y="550" on="1"/>
        <pt x="121" y="567" on="0"/>
        <pt x="130" y="607" on="0"/>
        <pt x="150" y="624" on="1"/>
        <pt x="218" y="586" on="1"/>
        <pt x="210" y="578" on="0"/>
        <pt x="207" y="556" on="0"/>
        <pt x="207" y="550" on="1"/>
        <pt x="207" y="480" on="1"/>
        <pt x="207" y="469" on="0"/>
        <pt x="212" y="449" on="0"/>
      </contour>
    </TTGlyph>
    <TTGlyph name="T" xMin="252" yMin="278" xMax="488" yMax="690">
      <contour>
        <pt x="338" y="278" on="1"/>
        <pt x="328" y="283" on="0"/>
        <pt x="314" y="283" on="1"/>
        <pt x="288" y="283" on="0"/>
        <pt x="252" y="319" on="0"/>
        <pt x="252" y="345" on="1"/>
        <pt x="252" y="640" on="1"/>
        <pt x="338" y="590" on="1"/>
      </contour>
      <contour>
        <pt x="488" y="690" on="1"/>
        <pt x="488" y="590" on="1"/>
        <pt x="448" y="640" on="1"/>
      </contour>
    </TTGlyph>
    <TTGlyph name="U" xMin="147" yMin="278" xMax="525" yMax="690">
      <contour>
        <pt x="525" y="278" on="1"/>
        <pt x="513" y="283" on="0"/>
        <pt x="501" y="283" on="1"/>
        <pt x="475" y="283" on="0"/>
        <pt x="439" y="319" on="0"/>
        <pt x="439" y="345" on="1"/>
        <pt x="439" y="621" on="1"/>
        <pt x="525" y="690" on="1"/>
      </contour>
      <contour>
        <pt x="233" y="278" on="1"/>
        <pt x="227" y="281" on="0"/>
        <pt x="212" y="283" on="0"/>
        <pt x="209" y="283" on="1"/>
        <pt x="183" y="283" on="0"/>
        <pt x="147" y="319" on="0"/>
        <pt x="147" y="345" on="1"/>
        <pt x="147" y="621" on="1"/>
        <pt x="233" y="690" on="1"/>
      </contour>
    </TTGlyph>
    <TTGlyph name="V" xMin="121" yMin="244" xMax="521" yMax="690">
      <contour>
        <pt x="207" y="414" on="1"/>
        <pt x="121" y="414" on="1"/>
        <pt x="121" y="620" on="1"/>
        <pt x="207" y="690" on="1"/>
      </contour>
      <contour>
        <pt x="231" y="326" on="1"/>
        <pt x="227" y="324" on="1"/>
        <pt x="225" y="323" on="0"/>
        <pt x="223" y="321" on="0"/>
        <pt x="221" y="320" on="1"/>
        <pt x="201" y="309" on="0"/>
        <pt x="153" y="323" on="0"/>
        <pt x="142" y="344" on="1"/>
        <pt x="121" y="414" on="1"/>
        <pt x="207" y="414" on="1"/>
      </contour>
      <contour>
        <pt x="435" y="414" on="1"/>
        <pt x="521" y="389" on="1"/>
        <pt x="466" y="244" on="1"/>
        <pt x="461" y="251" on="0"/>
        <pt x="450" y="259" on="0"/>
        <pt x="445" y="262" on="1"/>
        <pt x="422" y="275" on="0"/>
        <pt x="403" y="323" on="0"/>
        <pt x="414" y="344" on="1"/>
      </contour>
      <contour>
        <pt x="521" y="389" on="1"/>
        <pt x="435" y="414" on="1"/>
        <pt x="435" y="620" on="1"/>
        <pt x="521" y="690" on="1"/>
      </contour>
    </TTGlyph>
    <TTGlyph name="W" xMin="147" yMin="278" xMax="817" yMax="690">
      <contour>
        <pt x="233" y="278" on="1"/>
        <pt x="221" y="283" on="0"/>
        <pt x="209" y="283" on="1"/>
        <pt x="183" y="283" on="0"/>
        <pt x="147" y="319" on="0"/>
        <pt x="147" y="345" on="1"/>
        <pt x="147" y="620" on="1"/>
        <pt x="233" y="690" on="1"/>
      </contour>
      <contour>
        <pt x="525" y="278" on="1"/>
        <pt x="513" y="283" on="0"/>
        <pt x="501" y="283" on="1"/>
        <pt x="475" y="283" on="0"/>
        <pt x="439" y="319" on="0"/>
        <pt x="439" y="345" on="1"/>
        <pt x="439" y="620" on="1"/>
        <pt x="525" y="690" on="1"/>
      </contour>
      <contour>
        <pt x="817" y="278" on="1"/>
        <pt x="805" y="283" on="0"/>
        <pt x="792" y="283" on="1"/>
        <pt x="766" y="283" on="0"/>
        <pt x="731" y="319" on="0"/>
        <pt x="731" y="345" on="1"/>
        <pt x="731" y="620" on="1"/>
        <pt x="817" y="690" on="1"/>
      </contour>
    </TTGlyph>
    <TTGlyph name="X" xMin="185" yMin="252" xMax="574" yMax="690">
      <contour>
        <pt x="311" y="379" on="1"/>
        <pt x="311" y="311" on="1"/>
        <pt x="290" y="252" on="1"/>
        <pt x="285" y="257" on="0"/>
        <pt x="273" y="265" on="0"/>
        <pt x="265" y="267" on="1"/>
        <pt x="246" y="273" on="0"/>
        <pt x="225" y="304" on="0"/>
        <pt x="225" y="323" on="1"/>
        <pt x="225" y="330" on="0"/>
        <pt x="227" y="338" on="1"/>
        <pt x="228" y="342" on="0"/>
        <pt x="229" y="345" on="1"/>
        <pt x="240" y="398" on="1"/>
      </contour>
      <contour>
        <pt x="311" y="446" on="1"/>
        <pt x="311" y="379" on="1"/>
        <pt x="240" y="398" on="1"/>
        <pt x="185" y="611" on="1"/>
        <pt x="239" y="690" on="1"/>
      </contour>
      <contour>
        <pt x="472" y="381" on="1"/>
        <pt x="496" y="313" on="1"/>
        <pt x="482" y="313" on="0"/>
        <pt x="473" y="309" on="1"/>
        <pt x="469" y="307" on="0"/>
        <pt x="460" y="305" on="0"/>
        <pt x="451" y="305" on="1"/>
        <pt x="432" y="305" on="0"/>
        <pt x="403" y="328" on="0"/>
        <pt x="393" y="345" on="1"/>
        <pt x="382" y="398" on="1"/>
      </contour>
      <contour>
        <pt x="574" y="690" on="1"/>
        <pt x="472" y="381" on="1"/>
        <pt x="382" y="398" on="1"/>
        <pt x="437" y="611" on="1"/>
      </contour>
    </TTGlyph>
    <TTGlyph name="Y" xMin="121" yMin="306" xMax="499" yMax="690">
      <contour>
        <pt x="207" y="410" on="1"/>
        <pt x="207" y="400" on="0"/>
        <pt x="208" y="385" on="0"/>
        <pt x="212" y="377" on="1"/>
        <pt x="133" y="340" on="1"/>
        <pt x="125" y="352" on="0"/>
        <pt x="121" y="380" on="0"/>
        <pt x="121" y="394" on="1"/>
        <pt x="121" y="620" on="1"/>
        <pt x="207" y="690" on="1"/>
      </contour>
      <contour>
        <pt x="499" y="405" on="1"/>
        <pt x="499" y="379" on="0"/>
        <pt x="490" y="329" on="0"/>
        <pt x="473" y="306" on="1"/>
        <pt x="401" y="340" on="1"/>
        <pt x="409" y="352" on="0"/>
        <pt x="413" y="380" on="0"/>
        <pt x="413" y="394" on="1"/>
        <pt x="413" y="620" on="1"/>
        <pt x="499" y="690" on="1"/>
      </contour>
    </TTGlyph>
    <TTGlyph name="Z" xMin="254" yMin="251" xMax="505" yMax="690">
      <contour>
        <pt x="319" y="251" on="1"/>
        <pt x="309" y="262" on="0"/>
        <pt x="295" y="267" on="1"/>
        <pt x="276" y="273" on="0"/>
        <pt x="254" y="304" on="0"/>
        <pt x="254" y="323" on="1"/>
        <pt x="254" y="336" on="0"/>
        <pt x="258" y="345" on="1"/>
        <pt x="386" y="640" on="1"/>
        <pt x="505" y="690" on="1"/>
      </contour>
    </TTGlyph>
    <TTGlyph name="a" xMin="384" yMin="278" xMax="499" yMax="515">
      <contour>
        <pt x="413" y="403" on="1"/>
        <pt x="413" y="420" on="0"/>
        <pt x="403" y="457" on="0"/>
        <pt x="384" y="476" on="1"/>
        <pt x="452" y="515" on="1"/>
        <pt x="467" y="503" on="0"/>
        <pt x="485" y="472" on="0"/>
        <pt x="495" y="441" on="0"/>
        <pt x="499" y="412" on="0"/>
        <pt x="499" y="402" on="1"/>
        <pt x="499" y="278" on="1"/>
        <pt x="487" y="283" on="0"/>
        <pt x="475" y="283" on="1"/>
        <pt x="449" y="283" on="0"/>
        <pt x="413" y="319" on="0"/>
        <pt x="413" y="345" on="1"/>
      </contour>
    </TTGlyph>
    <TTGlyph name="ampersand" xMin="147" yMin="271" xMax="525" yMax="678">
      <contour>
        <pt x="147" y="338" on="1"/>
        <pt x="283" y="377" on="1"/>
        <pt x="233" y="271" on="1"/>
        <pt x="221" y="276" on="0"/>
        <pt x="209" y="276" on="1"/>
        <pt x="183" y="276" on="0"/>
        <pt x="147" y="312" on="0"/>
      </contour>
      <contour>
        <pt x="439" y="589" on="1"/>
        <pt x="439" y="623" on="0"/>
        <pt x="418" y="638" on="1"/>
        <pt x="488" y="678" on="1"/>
        <pt x="499" y="670" on="0"/>
        <pt x="525" y="627" on="0"/>
        <pt x="525" y="589" on="1"/>
        <pt x="525" y="477" on="1"/>
        <pt x="525" y="445" on="0"/>
        <pt x="509" y="413" on="0"/>
        <pt x="486" y="402" on="1"/>
        <pt x="413" y="433" on="1"/>
        <pt x="427" y="440" on="0"/>
        <pt x="439" y="458" on="0"/>
        <pt x="439" y="468" on="1"/>
      </contour>
      <contour>
        <pt x="168" y="638" on="1"/>
        <pt x="247" y="592" on="1"/>
        <pt x="233" y="582" on="0"/>
        <pt x="233" y="563" on="1"/>
        <pt x="233" y="494" on="1"/>
        <pt x="233" y="488" on="0"/>
        <pt x="235" y="473" on="0"/>
        <pt x="240" y="466" on="1"/>
        <pt x="178" y="431" on="1"/>
        <pt x="159" y="447" on="0"/>
        <pt x="148" y="477" on="0"/>
        <pt x="148" y="494" on="1"/>
        <pt x="148" y="590" on="1"/>
        <pt x="148" y="605" on="0"/>
        <pt x="159" y="631" on="0"/>
      </contour>
      <contour>
        <pt x="385" y="360" on="1"/>
        <pt x="411" y="317" on="1"/>
        <pt x="406" y="317" on="0"/>
        <pt x="393" y="313" on="0"/>
        <pt x="388" y="311" on="1"/>
        <pt x="374" y="304" on="0"/>
        <pt x="348" y="305" on="0"/>
        <pt x="326" y="314" on="0"/>
        <pt x="308" y="331" on="0"/>
        <pt x="304" y="341" on="1"/>
        <pt x="283" y="377" on="1"/>
      </contour>
      <contour>
        <pt x="240" y="466" on="1"/>
        <pt x="245" y="458" on="0"/>
        <pt x="267" y="442" on="0"/>
        <pt x="283" y="442" on="1"/>
        <pt x="283" y="377" on="1"/>
        <pt x="243" y="391" on="0"/>
        <pt x="193" y="418" on="0"/>
        <pt x="178" y="431" on="1"/>
      </contour>
    </TTGlyph>
    <TTGlyph name="asciicircum" xMin="94" yMin="618" xMax="347" yMax="870">
      <contour>
        <pt x="213" y="828" on="1"/>
        <pt x="237" y="870" on="1"/>
        <pt x="347" y="618" on="1"/>
        <pt x="290" y="656" on="1"/>
      </contour>
      <contour>
        <pt x="169" y="828" on="1"/>
        <pt x="191" y="828" on="1"/>
        <pt x="191" y="791" on="1"/>
        <pt x="119" y="618" on="1"/>
        <pt x="94" y="656" on="1"/>
      </contour>
    </TTGlyph>
    <TTGlyph name="asciitilde" xMin="87" yMin="298" xMax="436" yMax="453">
      <contour>
        <pt x="436" y="453" on="1"/>
        <pt x="436" y="424" on="0"/>
        <pt x="426" y="375" on="0"/>
        <pt x="409" y="355" on="1"/>
        <pt x="369" y="384" on="1"/>
        <pt x="374" y="389" on="0"/>
        <pt x="381" y="403" on="0"/>
        <pt x="382" y="407" on="1"/>
      </contour>
      <contour>
        <pt x="87" y="345" on="1"/>
        <pt x="89" y="349" on="0"/>
        <pt x="97" y="362" on="0"/>
        <pt x="102" y="367" on="1"/>
        <pt x="148" y="332" on="1"/>
        <pt x="134" y="318" on="0"/>
        <pt x="134" y="298" on="1"/>
      </contour>
    </TTGlyph>
    <TTGlyph name="asterisk" xMin="120" yMin="362" xMax="377" yMax="699">
      <contour>
        <pt x="201" y="448" on="1"/>
        <pt x="133" y="362" on="1"/>
        <pt x="120" y="424" on="1"/>
        <pt x="201" y="527" on="1"/>
      </contour>
      <contour>
        <pt x="202" y="659" on="1"/>
        <pt x="250" y="699" on="1"/>
        <pt x="250" y="596" on="1"/>
        <pt x="201" y="527" on="1"/>
      </contour>
      <contour>
        <pt x="377" y="540" on="1"/>
        <pt x="321" y="567" on="1"/>
        <pt x="346" y="629" on="1"/>
      </contour>
      <contour>
        <pt x="346" y="423" on="1"/>
        <pt x="282" y="424" on="1"/>
        <pt x="278" y="429" on="0"/>
        <pt x="268" y="441" on="1"/>
        <pt x="260" y="452" on="0"/>
        <pt x="228" y="492" on="0"/>
        <pt x="201" y="527" on="1"/>
        <pt x="277" y="504" on="1"/>
      </contour>
    </TTGlyph>
    <TTGlyph name="at" xMin="111" yMin="292" xMax="859" yMax="624">
      <contour>
        <pt x="552" y="425" on="1"/>
        <pt x="614" y="475" on="1"/>
        <pt x="614" y="292" on="1"/>
        <pt x="604" y="296" on="0"/>
        <pt x="597" y="296" on="1"/>
        <pt x="578" y="296" on="0"/>
        <pt x="552" y="322" on="0"/>
        <pt x="552" y="340" on="1"/>
      </contour>
      <contour>
        <pt x="350" y="340" on="1"/>
        <pt x="350" y="360" on="1"/>
        <pt x="350" y="377" on="0"/>
        <pt x="356" y="408" on="0"/>
        <pt x="371" y="423" on="1"/>
        <pt x="421" y="395" on="1"/>
        <pt x="413" y="387" on="0"/>
        <pt x="413" y="373" on="1"/>
        <pt x="413" y="292" on="1"/>
        <pt x="408" y="294" on="0"/>
        <pt x="400" y="296" on="0"/>
        <pt x="395" y="296" on="1"/>
        <pt x="377" y="296" on="0"/>
        <pt x="350" y="322" on="0"/>
      </contour>
      <contour>
        <pt x="859" y="296" on="1"/>
        <pt x="852" y="300" on="0"/>
        <pt x="842" y="300" on="1"/>
        <pt x="825" y="300" on="0"/>
        <pt x="797" y="325" on="0"/>
        <pt x="797" y="344" on="1"/>
        <pt x="797" y="375" on="0"/>
        <pt x="780" y="445" on="0"/>
        <pt x="748" y="514" on="0"/>
        <pt x="701" y="576" on="0"/>
        <pt x="671" y="597" on="1"/>
        <pt x="715" y="624" on="1"/>
        <pt x="746" y="601" on="0"/>
        <pt x="799" y="532" on="0"/>
        <pt x="837" y="447" on="0"/>
        <pt x="859" y="348" on="0"/>
      </contour>
      <contour>
        <pt x="111" y="350" on="1"/>
        <pt x="111" y="384" on="0"/>
        <pt x="133" y="455" on="0"/>
        <pt x="171" y="520" on="0"/>
        <pt x="223" y="578" on="0"/>
        <pt x="253" y="599" on="1"/>
        <pt x="303" y="568" on="1"/>
        <pt x="269" y="548" on="0"/>
        <pt x="218" y="489" on="0"/>
        <pt x="184" y="417" on="0"/>
        <pt x="167" y="337" on="0"/>
        <pt x="167" y="298" on="1"/>
        <pt x="161" y="300" on="0"/>
        <pt x="155" y="300" on="1"/>
        <pt x="137" y="300" on="0"/>
        <pt x="111" y="326" on="0"/>
        <pt x="111" y="344" on="1"/>
      </contour>
    </TTGlyph>
    <TTGlyph name="b" xMin="147" yMin="278" xMax="525" yMax="700">
      <contour>
        <pt x="525" y="278" on="1"/>
        <pt x="515" y="283" on="0"/>
        <pt x="501" y="283" on="1"/>
        <pt x="475" y="283" on="0"/>
        <pt x="439" y="319" on="0"/>
        <pt x="439" y="345" on="1"/>
        <pt x="439" y="428" on="1"/>
        <pt x="439" y="445" on="0"/>
        <pt x="428" y="474" on="0"/>
        <pt x="417" y="484" on="1"/>
        <pt x="474" y="517" on="1"/>
        <pt x="497" y="497" on="0"/>
        <pt x="525" y="450" on="0"/>
        <pt x="525" y="412" on="1"/>
      </contour>
      <contour>
        <pt x="147" y="630" on="1"/>
        <pt x="233" y="700" on="1"/>
        <pt x="233" y="524" on="1"/>
        <pt x="215" y="513" on="0"/>
        <pt x="168" y="475" on="0"/>
        <pt x="147" y="448" on="1"/>
      </contour>
      <contour>
        <pt x="147" y="432" on="1"/>
        <pt x="233" y="402" on="1"/>
        <pt x="233" y="278" on="1"/>
        <pt x="223" y="283" on="0"/>
        <pt x="209" y="283" on="1"/>
        <pt x="183" y="283" on="0"/>
        <pt x="147" y="319" on="0"/>
        <pt x="147" y="345" on="1"/>
      </contour>
    </TTGlyph>
    <TTGlyph name="backslash" xMin="107" yMin="317" xMax="304" yMax="700">
      <contour>
        <pt x="158" y="700" on="1"/>
        <pt x="158" y="700" on="0"/>
        <pt x="170" y="668" on="0"/>
        <pt x="191" y="615" on="0"/>
        <pt x="217" y="547" on="0"/>
        <pt x="231" y="512" on="1"/>
        <pt x="264" y="429" on="0"/>
        <pt x="304" y="325" on="1"/>
        <pt x="294" y="325" on="0"/>
        <pt x="286" y="321" on="1"/>
        <pt x="278" y="317" on="0"/>
        <pt x="268" y="317" on="1"/>
        <pt x="254" y="317" on="0"/>
        <pt x="232" y="331" on="0"/>
        <pt x="227" y="345" on="1"/>
        <pt x="107" y="650" on="1"/>
      </contour>
    </TTGlyph>
    <TTGlyph name="bar" xMin="126" yMin="193" xMax="190" yMax="700">
      <contour>
        <pt x="126" y="647" on="1"/>
        <pt x="190" y="700" on="1"/>
        <pt x="190" y="193" on="1"/>
        <pt x="182" y="196" on="0"/>
        <pt x="172" y="196" on="1"/>
        <pt x="152" y="196" on="0"/>
        <pt x="126" y="223" on="0"/>
        <pt x="126" y="243" on="1"/>
      </contour>
    </TTGlyph>
    <TTGlyph name="braceleft" xMin="116" yMin="222" xMax="187" yMax="645">
      <contour>
        <pt x="116" y="431" on="1"/>
        <pt x="122" y="442" on="0"/>
        <pt x="125" y="465" on="0"/>
        <pt x="125" y="479" on="1"/>
        <pt x="125" y="612" on="1"/>
        <pt x="125" y="621" on="0"/>
        <pt x="128" y="639" on="0"/>
        <pt x="132" y="645" on="1"/>
        <pt x="187" y="602" on="1"/>
        <pt x="187" y="441" on="1"/>
        <pt x="187" y="416" on="0"/>
        <pt x="167" y="400" on="1"/>
      </contour>
      <contour>
        <pt x="125" y="281" on="1"/>
        <pt x="125" y="295" on="0"/>
        <pt x="122" y="318" on="0"/>
        <pt x="116" y="329" on="1"/>
        <pt x="167" y="360" on="1"/>
        <pt x="187" y="344" on="0"/>
        <pt x="187" y="319" on="1"/>
        <pt x="187" y="222" on="1"/>
        <pt x="178" y="226" on="0"/>
        <pt x="169" y="226" on="1"/>
        <pt x="151" y="226" on="0"/>
        <pt x="125" y="252" on="0"/>
        <pt x="125" y="270" on="1"/>
      </contour>
    </TTGlyph>
    <TTGlyph name="braceright" xMin="168" yMin="222" xMax="238" yMax="673">
      <contour>
        <pt x="204" y="673" on="1"/>
        <pt x="220" y="659" on="0"/>
        <pt x="238" y="621" on="0"/>
        <pt x="238" y="595" on="1"/>
        <pt x="238" y="462" on="1"/>
        <pt x="184" y="431" on="1"/>
        <pt x="178" y="442" on="0"/>
        <pt x="175" y="465" on="0"/>
        <pt x="175" y="479" on="1"/>
        <pt x="175" y="612" on="1"/>
        <pt x="175" y="621" on="0"/>
        <pt x="172" y="639" on="0"/>
        <pt x="168" y="645" on="1"/>
      </contour>
      <contour>
        <pt x="238" y="222" on="1"/>
        <pt x="229" y="226" on="0"/>
        <pt x="220" y="226" on="1"/>
        <pt x="202" y="226" on="0"/>
        <pt x="175" y="252" on="0"/>
        <pt x="175" y="270" on="1"/>
        <pt x="175" y="281" on="1"/>
        <pt x="175" y="295" on="0"/>
        <pt x="178" y="318" on="0"/>
        <pt x="184" y="329" on="1"/>
        <pt x="238" y="298" on="1"/>
      </contour>
    </TTGlyph>
    <TTGlyph name="bracketleft" xMin="113" yMin="299" xMax="269" yMax="700">
      <contour>
        <pt x="229" y="650" on="1"/>
        <pt x="269" y="700" on="1"/>
        <pt x="269" y="600" on="1"/>
      </contour>
      <contour>
        <pt x="113" y="650" on="1"/>
        <pt x="173" y="600" on="1"/>
        <pt x="173" y="299" on="1"/>
        <pt x="167" y="302" on="0"/>
        <pt x="157" y="302" on="1"/>
        <pt x="139" y="302" on="0"/>
        <pt x="113" y="328" on="0"/>
        <pt x="113" y="346" on="1"/>
      </contour>
    </TTGlyph>
    <TTGlyph name="bracketright" xMin="182" yMin="297" xMax="245" yMax="700">
      <contour>
        <pt x="245" y="297" on="1"/>
        <pt x="237" y="301" on="0"/>
        <pt x="227" y="301" on="1"/>
        <pt x="209" y="301" on="0"/>
        <pt x="182" y="327" on="0"/>
        <pt x="182" y="345" on="1"/>
        <pt x="182" y="650" on="1"/>
        <pt x="245" y="700" on="1"/>
      </contour>
    </TTGlyph>
    <TTGlyph name="bullet" xMin="145" yMin="252" xMax="237" yMax="395">
      <contour>
        <pt x="145" y="315" on="1"/>
        <pt x="153" y="323" on="0"/>
        <pt x="164" y="323" on="1"/>
        <pt x="159" y="323" on="0"/>
        <pt x="148" y="328" on="0"/>
        <pt x="145" y="331" on="1"/>
        <pt x="207" y="395" on="1"/>
        <pt x="237" y="363" on="0"/>
        <pt x="237" y="323" on="1"/>
        <pt x="237" y="304" on="0"/>
        <pt x="221" y="266" on="0"/>
        <pt x="207" y="252" on="1"/>
      </contour>
    </TTGlyph>
    <TTGlyph name="c" xMin="147" yMin="278" xMax="412" yMax="552">
      <contour>
        <pt x="412" y="552" on="1"/>
        <pt x="412" y="452" on="1"/>
        <pt x="372" y="502" on="1"/>
      </contour>
      <contour>
        <pt x="233" y="278" on="1"/>
        <pt x="221" y="283" on="0"/>
        <pt x="209" y="283" on="1"/>
        <pt x="183" y="283" on="0"/>
        <pt x="147" y="319" on="0"/>
        <pt x="147" y="345" on="1"/>
        <pt x="147" y="404" on="1"/>
        <pt x="147" y="424" on="0"/>
        <pt x="159" y="459" on="0"/>
        <pt x="176" y="476" on="1"/>
        <pt x="249" y="435" on="1"/>
        <pt x="241" y="428" on="0"/>
        <pt x="233" y="408" on="0"/>
        <pt x="233" y="398" on="1"/>
      </contour>
    </TTGlyph>
    <TTGlyph name="colon" xMin="126" yMin="400" xMax="201" yMax="518">
      <contour>
        <pt x="177" y="518" on="1"/>
        <pt x="201" y="494" on="0"/>
        <pt x="201" y="459" on="1"/>
        <pt x="201" y="443" on="0"/>
        <pt x="189" y="412" on="0"/>
        <pt x="177" y="400" on="1"/>
        <pt x="126" y="451" on="1"/>
        <pt x="134" y="459" on="0"/>
        <pt x="145" y="459" on="1"/>
        <pt x="134" y="459" on="0"/>
        <pt x="126" y="467" on="1"/>
      </contour>
    </TTGlyph>
    <TTGlyph name="d" xMin="147" yMin="278" xMax="525" yMax="700">
      <contour>
        <pt x="439" y="630" on="1"/>
        <pt x="525" y="700" on="1"/>
        <pt x="525" y="278" on="1"/>
        <pt x="513" y="283" on="0"/>
        <pt x="501" y="283" on="1"/>
        <pt x="475" y="283" on="0"/>
        <pt x="439" y="319" on="0"/>
        <pt x="439" y="345" on="1"/>
      </contour>
      <contour>
        <pt x="147" y="428" on="1"/>
        <pt x="147" y="445" on="0"/>
        <pt x="158" y="474" on="0"/>
        <pt x="169" y="484" on="1"/>
        <pt x="183" y="476" on="0"/>
        <pt x="212" y="459" on="0"/>
        <pt x="223" y="453" on="1"/>
        <pt x="236" y="445" on="0"/>
        <pt x="248" y="439" on="1"/>
        <pt x="233" y="425" on="0"/>
        <pt x="233" y="401" on="1"/>
        <pt x="233" y="278" on="1"/>
        <pt x="230" y="279" on="0"/>
        <pt x="226" y="280" on="1"/>
        <pt x="223" y="281" on="0"/>
        <pt x="214" y="283" on="0"/>
        <pt x="209" y="283" on="1"/>
        <pt x="183" y="283" on="0"/>
        <pt x="147" y="319" on="0"/>
        <pt x="147" y="345" on="1"/>
      </contour>
    </TTGlyph>
    <TTGlyph name="dollar" xMin="122" yMin="262" xMax="551" yMax="777">
      <contour>
        <pt x="551" y="275" on="1"/>
        <pt x="539" y="280" on="0"/>
        <pt x="527" y="280" on="1"/>
        <pt x="501" y="280" on="0"/>
        <pt x="465" y="316" on="0"/>
        <pt x="465" y="342" on="1"/>
        <pt x="465" y="347" on="0"/>
        <pt x="459" y="358" on="0"/>
        <pt x="453" y="363" on="1"/>
        <pt x="515" y="402" on="1"/>
        <pt x="531" y="391" on="0"/>
        <pt x="551" y="357" on="0"/>
        <pt x="551" y="337" on="1"/>
      </contour>
      <contour>
        <pt x="122" y="552" on="1"/>
        <pt x="122" y="565" on="0"/>
        <pt x="126" y="595" on="0"/>
        <pt x="134" y="606" on="1"/>
        <pt x="213" y="569" on="1"/>
        <pt x="208" y="559" on="0"/>
        <pt x="208" y="546" on="1"/>
        <pt x="208" y="474" on="1"/>
        <pt x="208" y="456" on="0"/>
        <pt x="220" y="441" on="1"/>
        <pt x="144" y="391" on="1"/>
        <pt x="130" y="405" on="0"/>
        <pt x="122" y="434" on="0"/>
        <pt x="122" y="444" on="1"/>
      </contour>
      <contour>
        <pt x="465" y="548" on="1"/>
        <pt x="465" y="559" on="0"/>
        <pt x="462" y="593" on="0"/>
        <pt x="453" y="606" on="1"/>
        <pt x="525" y="640" on="1"/>
        <pt x="539" y="624" on="0"/>
        <pt x="551" y="581" on="0"/>
        <pt x="551" y="561" on="1"/>
        <pt x="551" y="478" on="1"/>
      </contour>
      <contour>
        <pt x="293" y="262" on="1"/>
        <pt x="293" y="373" on="1"/>
        <pt x="335" y="323" on="1"/>
        <pt x="335" y="289" on="1"/>
      </contour>
      <contour>
        <pt x="335" y="424" on="1"/>
        <pt x="293" y="373" on="1"/>
        <pt x="293" y="650" on="1"/>
        <pt x="335" y="598" on="1"/>
      </contour>
      <contour>
        <pt x="335" y="700" on="1"/>
        <pt x="293" y="650" on="1"/>
        <pt x="293" y="738" on="1"/>
        <pt x="335" y="777" on="1"/>
      </contour>
    </TTGlyph>
    <TTGlyph name="e" xMin="147" yMin="233" xMax="525" yMax="521">
      <contour>
        <pt x="241" y="446" on="1"/>
        <pt x="233" y="435" on="0"/>
        <pt x="233" y="412" on="1"/>
        <pt x="233" y="333" on="1"/>
        <pt x="171" y="296" on="1"/>
        <pt x="160" y="304" on="0"/>
        <pt x="147" y="330" on="0"/>
        <pt x="147" y="345" on="1"/>
        <pt x="147" y="429" on="1"/>
        <pt x="147" y="441" on="0"/>
        <pt x="154" y="474" on="0"/>
        <pt x="167" y="488" on="1"/>
      </contour>
      <contour>
        <pt x="439" y="429" on="1"/>
        <pt x="439" y="441" on="0"/>
        <pt x="432" y="474" on="0"/>
        <pt x="419" y="488" on="1"/>
        <pt x="477" y="521" on="1"/>
        <pt x="499" y="502" on="0"/>
        <pt x="525" y="449" on="0"/>
        <pt x="525" y="422" on="1"/>
        <pt x="525" y="233" on="1"/>
        <pt x="439" y="283" on="1"/>
      </contour>
    </TTGlyph>
    <TTGlyph name="eight" xMin="147" yMin="278" xMax="525" yMax="678">
      <contour>
        <pt x="241" y="326" on="1"/>
        <pt x="238" y="322" on="0"/>
        <pt x="235" y="313" on="0"/>
        <pt x="234" y="308" on="1"/>
        <pt x="233" y="303" on="0"/>
        <pt x="233" y="296" on="1"/>
        <pt x="233" y="278" on="1"/>
        <pt x="221" y="283" on="0"/>
        <pt x="209" y="283" on="1"/>
        <pt x="183" y="283" on="0"/>
        <pt x="147" y="319" on="0"/>
        <pt x="147" y="345" on="1"/>
      </contour>
      <contour>
        <pt x="147" y="441" on="1"/>
        <pt x="147" y="587" on="1"/>
        <pt x="147" y="595" on="0"/>
        <pt x="150" y="604" on="1"/>
        <pt x="152" y="612" on="0"/>
        <pt x="160" y="629" on="0"/>
        <pt x="168" y="637" on="1"/>
        <pt x="247" y="591" on="1"/>
        <pt x="233" y="581" on="0"/>
        <pt x="233" y="566" on="1"/>
        <pt x="233" y="497" on="1"/>
        <pt x="233" y="487" on="0"/>
        <pt x="235" y="469" on="0"/>
        <pt x="241" y="460" on="1"/>
      </contour>
      <contour>
        <pt x="507" y="360" on="1"/>
        <pt x="519" y="345" on="0"/>
        <pt x="525" y="314" on="0"/>
        <pt x="525" y="302" on="1"/>
        <pt x="525" y="278" on="1"/>
        <pt x="513" y="283" on="0"/>
        <pt x="501" y="283" on="1"/>
        <pt x="475" y="283" on="0"/>
        <pt x="439" y="319" on="0"/>
        <pt x="439" y="345" on="1"/>
      </contour>
      <contour>
        <pt x="439" y="441" on="1"/>
        <pt x="439" y="587" on="1"/>
        <pt x="439" y="595" on="0"/>
        <pt x="436" y="604" on="1"/>
        <pt x="434" y="612" on="0"/>
        <pt x="426" y="629" on="0"/>
        <pt x="418" y="637" on="1"/>
        <pt x="488" y="678" on="1"/>
        <pt x="499" y="670" on="0"/>
        <pt x="525" y="629" on="0"/>
        <pt x="525" y="589" on="1"/>
        <pt x="525" y="480" on="1"/>
        <pt x="525" y="469" on="0"/>
        <pt x="518" y="437" on="0"/>
        <pt x="507" y="426" on="1"/>
      </contour>
    </TTGlyph>
    <TTGlyph name="equal" xMin="295" yMin="357" xMax="335" yMax="457">
      <contour>
        <pt x="295" y="407" on="1"/>
        <pt x="335" y="457" on="1"/>
        <pt x="335" y="357" on="1"/>
      </contour>
    </TTGlyph>
    <TTGlyph name="exclam" xMin="127" yMin="271" xMax="213" yMax="700">
      <contour>
        <pt x="213" y="424" on="1"/>
        <pt x="169" y="271" on="1"/>
        <pt x="127" y="323" on="1"/>
        <pt x="127" y="630" on="1"/>
        <pt x="213" y="700" on="1"/>
      </contour>
    </TTGlyph>
    <TTGlyph name="f" xMin="198" yMin="278" xMax="442" yMax="720">
      <contour>
        <pt x="369" y="502" on="1"/>
        <pt x="409" y="552" on="1"/>
        <pt x="409" y="452" on="1"/>
      </contour>
      <contour>
        <pt x="260" y="283" on="1"/>
        <pt x="234" y="283" on="0"/>
        <pt x="198" y="319" on="0"/>
        <pt x="198" y="345" on="1"/>
        <pt x="198" y="502" on="1"/>
        <pt x="284" y="452" on="1"/>
        <pt x="284" y="278" on="1"/>
        <pt x="272" y="283" on="0"/>
      </contour>
      <contour>
        <pt x="442" y="720" on="1"/>
        <pt x="442" y="620" on="1"/>
        <pt x="402" y="670" on="1"/>
      </contour>
      <contour>
        <pt x="198" y="572" on="1"/>
        <pt x="198" y="592" on="0"/>
        <pt x="210" y="627" on="0"/>
        <pt x="227" y="644" on="1"/>
        <pt x="300" y="603" on="1"/>
        <pt x="292" y="596" on="0"/>
        <pt x="284" y="576" on="0"/>
        <pt x="284" y="566" on="1"/>
        <pt x="284" y="552" on="1"/>
        <pt x="198" y="502" on="1"/>
      </contour>
    </TTGlyph>
    <TTGlyph name="five" xMin="121" yMin="277" xMax="499" yMax="690">
      <contour>
        <pt x="499" y="278" on="1"/>
        <pt x="489" y="283" on="0"/>
        <pt x="475" y="283" on="1"/>
        <pt x="449" y="283" on="0"/>
        <pt x="413" y="319" on="0"/>
        <pt x="413" y="345" on="1"/>
        <pt x="413" y="362" on="1"/>
        <pt x="413" y="373" on="0"/>
        <pt x="403" y="400" on="0"/>
        <pt x="394" y="408" on="1"/>
        <pt x="448" y="439" on="1"/>
        <pt x="499" y="394" on="0"/>
        <pt x="499" y="313" on="1"/>
      </contour>
      <contour>
        <pt x="121" y="356" on="1"/>
        <pt x="207" y="329" on="1"/>
        <pt x="207" y="277" on="1"/>
        <pt x="121" y="346" on="1"/>
      </contour>
      <contour>
        <pt x="207" y="452" on="1"/>
        <pt x="184" y="439" on="0"/>
        <pt x="140" y="400" on="0"/>
        <pt x="121" y="371" on="1"/>
        <pt x="121" y="640" on="1"/>
        <pt x="207" y="590" on="1"/>
      </contour>
      <contour>
        <pt x="486" y="590" on="1"/>
        <pt x="446" y="640" on="1"/>
        <pt x="486" y="690" on="1"/>
      </contour>
    </TTGlyph>
    <TTGlyph name="four" xMin="113" yMin="190" xMax="498" yMax="690">
      <contour>
        <pt x="412" y="560" on="1"/>
        <pt x="455" y="631" on="1"/>
        <pt x="498" y="690" on="1"/>
        <pt x="498" y="279" on="1"/>
        <pt x="488" y="284" on="0"/>
        <pt x="474" y="284" on="1"/>
        <pt x="448" y="284" on="0"/>
        <pt x="412" y="319" on="0"/>
        <pt x="412" y="345" on="1"/>
      </contour>
      <contour>
        <pt x="369" y="631" on="1"/>
        <pt x="412" y="560" on="1"/>
        <pt x="325" y="417" on="1"/>
        <pt x="187" y="190" on="1"/>
        <pt x="113" y="190" on="1"/>
      </contour>
    </TTGlyph>
    <TTGlyph name="g" xMin="147" yMin="278" xMax="525" yMax="552">
      <contour>
        <pt x="439" y="483" on="1"/>
        <pt x="525" y="552" on="1"/>
        <pt x="525" y="278" on="1"/>
        <pt x="513" y="283" on="0"/>
        <pt x="501" y="283" on="1"/>
        <pt x="475" y="283" on="0"/>
        <pt x="439" y="319" on="0"/>
        <pt x="439" y="345" on="1"/>
      </contour>
      <contour>
        <pt x="264" y="504" on="1"/>
        <pt x="313" y="552" on="1"/>
        <pt x="313" y="454" on="1"/>
      </contour>
      <contour>
        <pt x="147" y="399" on="1"/>
        <pt x="147" y="422" on="0"/>
        <pt x="162" y="464" on="0"/>
        <pt x="176" y="478" on="1"/>
        <pt x="244" y="441" on="1"/>
        <pt x="233" y="428" on="0"/>
        <pt x="233" y="408" on="1"/>
        <pt x="233" y="278" on="1"/>
        <pt x="220" y="283" on="0"/>
        <pt x="209" y="283" on="1"/>
        <pt x="183" y="283" on="0"/>
        <pt x="147" y="319" on="0"/>
        <pt x="147" y="345" on="1"/>
      </contour>
    </TTGlyph>
    <TTGlyph name="greater" xMin="295" yMin="291" xMax="337" yMax="384">
      <contour>
        <pt x="337" y="384" on="1"/>
        <pt x="337" y="291" on="1"/>
        <pt x="295" y="315" on="1"/>
        <pt x="295" y="360" on="1"/>
      </contour>
    </TTGlyph>
    <TTGlyph name="h" xMin="147" yMin="278" xMax="525" yMax="700">
      <contour>
        <pt x="147" y="432" on="1"/>
        <pt x="233" y="402" on="1"/>
        <pt x="233" y="278" on="1"/>
        <pt x="223" y="283" on="0"/>
        <pt x="209" y="283" on="1"/>
        <pt x="183" y="283" on="0"/>
        <pt x="147" y="319" on="0"/>
        <pt x="147" y="345" on="1"/>
      </contour>
      <contour>
        <pt x="233" y="524" on="1"/>
        <pt x="213" y="512" on="0"/>
        <pt x="181" y="485" on="0"/>
        <pt x="170" y="474" on="1"/>
        <pt x="157" y="461" on="0"/>
        <pt x="147" y="448" on="1"/>
        <pt x="147" y="630" on="1"/>
        <pt x="233" y="700" on="1"/>
      </contour>
      <contour>
        <pt x="525" y="278" on="1"/>
        <pt x="515" y="283" on="0"/>
        <pt x="501" y="283" on="1"/>
        <pt x="475" y="283" on="0"/>
        <pt x="439" y="319" on="0"/>
        <pt x="439" y="345" on="1"/>
        <pt x="439" y="428" on="1"/>
        <pt x="439" y="445" on="0"/>
        <pt x="428" y="474" on="0"/>
        <pt x="417" y="484" on="1"/>
        <pt x="474" y="517" on="1"/>
        <pt x="497" y="497" on="0"/>
        <pt x="525" y="450" on="0"/>
        <pt x="525" y="412" on="1"/>
      </contour>
    </TTGlyph>
    <TTGlyph name="hyphen" xMin="185" yMin="241" xMax="225" yMax="339">
      <contour>
        <pt x="185" y="290" on="1"/>
        <pt x="225" y="339" on="1"/>
        <pt x="225" y="241" on="1"/>
      </contour>
    </TTGlyph>
    <TTGlyph name="i" xMin="147" yMin="278" xMax="233" yMax="700">
      <contour>
        <pt x="233" y="542" on="1"/>
        <pt x="147" y="472" on="1"/>
        <pt x="147" y="345" on="1"/>
        <pt x="147" y="319" on="0"/>
        <pt x="183" y="283" on="0"/>
        <pt x="209" y="283" on="1"/>
        <pt x="223" y="283" on="0"/>
        <pt x="233" y="278" on="1"/>
      </contour>
      <contour>
        <pt x="233" y="700" on="1"/>
        <pt x="233" y="600" on="1"/>
        <pt x="193" y="650" on="1"/>
      </contour>
    </TTGlyph>
    <TTGlyph name="j" xMin="154" yMin="278" xMax="240" yMax="700">
      <contour>
        <pt x="240" y="542" on="1"/>
        <pt x="154" y="472" on="1"/>
        <pt x="154" y="345" on="1"/>
        <pt x="154" y="319" on="0"/>
        <pt x="190" y="283" on="0"/>
        <pt x="216" y="283" on="1"/>
        <pt x="228" y="283" on="0"/>
        <pt x="240" y="278" on="1"/>
      </contour>
      <contour>
        <pt x="240" y="700" on="1"/>
        <pt x="240" y="600" on="1"/>
        <pt x="200" y="650" on="1"/>
      </contour>
    </TTGlyph>
    <TTGlyph name="k" xMin="147" yMin="278" xMax="553" yMax="700">
      <contour>
        <pt x="233" y="278" on="1"/>
        <pt x="223" y="283" on="0"/>
        <pt x="209" y="283" on="1"/>
        <pt x="183" y="283" on="0"/>
        <pt x="147" y="319" on="0"/>
        <pt x="147" y="345" on="1"/>
        <pt x="147" y="630" on="1"/>
        <pt x="233" y="700" on="1"/>
      </contour>
      <contour>
        <pt x="386" y="307" on="1"/>
        <pt x="382" y="305" on="0"/>
        <pt x="373" y="305" on="0"/>
        <pt x="369" y="305" on="1"/>
        <pt x="364" y="305" on="0"/>
        <pt x="350" y="307" on="0"/>
        <pt x="342" y="311" on="1"/>
        <pt x="431" y="483" on="1"/>
        <pt x="553" y="552" on="1"/>
        <pt x="430" y="309" on="1"/>
        <pt x="419" y="313" on="0"/>
        <pt x="396" y="311" on="0"/>
      </contour>
    </TTGlyph>
    <TTGlyph name="l" xMin="147" yMin="278" xMax="233" yMax="700">
      <contour>
        <pt x="147" y="630" on="1"/>
        <pt x="233" y="700" on="1"/>
        <pt x="233" y="278" on="1"/>
        <pt x="221" y="283" on="0"/>
        <pt x="209" y="283" on="1"/>
        <pt x="183" y="283" on="0"/>
        <pt x="147" y="319" on="0"/>
        <pt x="147" y="345" on="1"/>
      </contour>
    </TTGlyph>
    <TTGlyph name="less" xMin="276" yMin="181" xMax="337" yMax="494">
      <contour>
        <pt x="308" y="494" on="1"/>
        <pt x="337" y="421" on="1"/>
        <pt x="276" y="439" on="1"/>
      </contour>
      <contour>
        <pt x="337" y="255" on="1"/>
        <pt x="308" y="181" on="1"/>
        <pt x="276" y="237" on="1"/>
      </contour>
    </TTGlyph>
    <TTGlyph name="m" xMin="147" yMin="278" xMax="817" yMax="513">
      <contour>
        <pt x="243" y="438" on="1"/>
        <pt x="236" y="432" on="0"/>
        <pt x="233" y="416" on="0"/>
        <pt x="233" y="411" on="1"/>
        <pt x="233" y="278" on="1"/>
        <pt x="220" y="283" on="0"/>
        <pt x="209" y="283" on="1"/>
        <pt x="183" y="283" on="0"/>
        <pt x="147" y="319" on="0"/>
        <pt x="147" y="345" on="1"/>
        <pt x="147" y="419" on="1"/>
        <pt x="147" y="430" on="0"/>
        <pt x="159" y="465" on="0"/>
        <pt x="173" y="479" on="1"/>
      </contour>
      <contour>
        <pt x="525" y="278" on="1"/>
        <pt x="513" y="283" on="0"/>
        <pt x="501" y="283" on="1"/>
        <pt x="475" y="283" on="0"/>
        <pt x="439" y="319" on="0"/>
        <pt x="439" y="345" on="1"/>
        <pt x="439" y="384" on="1"/>
        <pt x="439" y="400" on="0"/>
        <pt x="446" y="417" on="1"/>
        <pt x="451" y="431" on="0"/>
        <pt x="476" y="465" on="0"/>
        <pt x="499" y="482" on="1"/>
        <pt x="543" y="441" on="1"/>
        <pt x="530" y="430" on="0"/>
        <pt x="527" y="418" on="1"/>
        <pt x="525" y="412" on="0"/>
        <pt x="525" y="406" on="1"/>
      </contour>
      <contour>
        <pt x="764" y="512" on="1"/>
        <pt x="784" y="494" on="0"/>
        <pt x="805" y="452" on="0"/>
        <pt x="815" y="416" on="0"/>
        <pt x="817" y="391" on="0"/>
        <pt x="817" y="389" on="1"/>
        <pt x="817" y="278" on="1"/>
        <pt x="807" y="283" on="0"/>
        <pt x="793" y="283" on="1"/>
        <pt x="767" y="283" on="0"/>
        <pt x="731" y="319" on="0"/>
        <pt x="731" y="345" on="1"/>
        <pt x="731" y="419" on="1"/>
        <pt x="731" y="430" on="0"/>
        <pt x="719" y="465" on="0"/>
        <pt x="705" y="479" on="1"/>
      </contour>
      <contour>
        <pt x="439" y="384" on="1"/>
        <pt x="437" y="400" on="0"/>
        <pt x="431" y="417" on="1"/>
        <pt x="425" y="431" on="0"/>
        <pt x="402" y="465" on="0"/>
        <pt x="379" y="482" on="1"/>
        <pt x="413" y="513" on="1"/>
        <pt x="423" y="502" on="0"/>
        <pt x="434" y="480" on="0"/>
        <pt x="436" y="472" on="1"/>
        <pt x="439" y="462" on="0"/>
        <pt x="439" y="453" on="1"/>
      </contour>
    </TTGlyph>
    <TTGlyph name="minus" xMin="305" yMin="241" xMax="345" yMax="339">
      <contour>
        <pt x="305" y="290" on="1"/>
        <pt x="345" y="339" on="1"/>
        <pt x="345" y="241" on="1"/>
      </contour>
    </TTGlyph>
    <TTGlyph name="n" xMin="147" yMin="278" xMax="525" yMax="512">
      <contour>
        <pt x="243" y="438" on="1"/>
        <pt x="235" y="430" on="0"/>
        <pt x="233" y="413" on="0"/>
        <pt x="233" y="411" on="1"/>
        <pt x="233" y="278" on="1"/>
        <pt x="221" y="283" on="0"/>
        <pt x="209" y="283" on="1"/>
        <pt x="183" y="283" on="0"/>
        <pt x="147" y="319" on="0"/>
        <pt x="147" y="345" on="1"/>
        <pt x="147" y="419" on="1"/>
        <pt x="147" y="430" on="0"/>
        <pt x="159" y="465" on="0"/>
        <pt x="173" y="479" on="1"/>
      </contour>
      <contour>
        <pt x="472" y="512" on="1"/>
        <pt x="492" y="494" on="0"/>
        <pt x="513" y="452" on="0"/>
        <pt x="523" y="416" on="0"/>
        <pt x="525" y="391" on="0"/>
        <pt x="525" y="389" on="1"/>
        <pt x="525" y="278" on="1"/>
        <pt x="515" y="283" on="0"/>
        <pt x="501" y="283" on="1"/>
        <pt x="475" y="283" on="0"/>
        <pt x="439" y="319" on="0"/>
        <pt x="439" y="345" on="1"/>
        <pt x="439" y="419" on="1"/>
        <pt x="439" y="430" on="0"/>
        <pt x="427" y="465" on="0"/>
        <pt x="413" y="479" on="1"/>
      </contour>
    </TTGlyph>
    <TTGlyph name="nine" xMin="121" yMin="278" xMax="499" yMax="664">
      <contour>
        <pt x="207" y="451" on="1"/>
        <pt x="207" y="445" on="0"/>
        <pt x="210" y="423" on="0"/>
        <pt x="218" y="415" on="1"/>
        <pt x="150" y="377" on="1"/>
        <pt x="139" y="388" on="0"/>
        <pt x="128" y="413" on="0"/>
        <pt x="125" y="424" on="1"/>
        <pt x="121" y="436" on="0"/>
        <pt x="121" y="449" on="1"/>
        <pt x="121" y="551" on="1"/>
        <pt x="121" y="571" on="0"/>
        <pt x="133" y="611" on="0"/>
        <pt x="150" y="625" on="1"/>
        <pt x="218" y="587" on="1"/>
        <pt x="210" y="579" on="0"/>
        <pt x="207" y="557" on="0"/>
        <pt x="207" y="551" on="1"/>
      </contour>
      <contour>
        <pt x="413" y="553" on="1"/>
        <pt x="413" y="576" on="0"/>
        <pt x="402" y="610" on="0"/>
        <pt x="384" y="625" on="1"/>
        <pt x="452" y="664" on="1"/>
        <pt x="467" y="652" on="0"/>
        <pt x="485" y="621" on="0"/>
        <pt x="495" y="590" on="0"/>
        <pt x="499" y="561" on="0"/>
        <pt x="499" y="551" on="1"/>
        <pt x="499" y="278" on="1"/>
        <pt x="487" y="283" on="0"/>
        <pt x="475" y="283" on="1"/>
        <pt x="449" y="283" on="0"/>
        <pt x="413" y="319" on="0"/>
        <pt x="413" y="345" on="1"/>
      </contour>
    </TTGlyph>
    <TTGlyph name="numbersign" xMin="301" yMin="279" xMax="787" yMax="701">
      <contour>
        <pt x="751" y="419" on="1"/>
        <pt x="726" y="468" on="1"/>
        <pt x="787" y="517" on="1"/>
      </contour>
      <contour>
        <pt x="351" y="468" on="1"/>
        <pt x="423" y="651" on="1"/>
        <pt x="505" y="701" on="1"/>
        <pt x="433" y="517" on="1"/>
      </contour>
      <contour>
        <pt x="394" y="419" on="1"/>
        <pt x="341" y="279" on="1"/>
        <pt x="335" y="287" on="0"/>
        <pt x="328" y="289" on="1"/>
        <pt x="301" y="300" on="0"/>
        <pt x="301" y="328" on="1"/>
        <pt x="301" y="337" on="0"/>
        <pt x="304" y="346" on="1"/>
        <pt x="351" y="468" on="1"/>
      </contour>
      <contour>
        <pt x="649" y="651" on="1"/>
        <pt x="731" y="701" on="1"/>
        <pt x="659" y="517" on="1"/>
        <pt x="577" y="468" on="1"/>
      </contour>
      <contour>
        <pt x="567" y="279" on="1"/>
        <pt x="561" y="287" on="0"/>
        <pt x="554" y="289" on="1"/>
        <pt x="527" y="300" on="0"/>
        <pt x="527" y="328" on="1"/>
        <pt x="527" y="337" on="0"/>
        <pt x="530" y="346" on="1"/>
        <pt x="577" y="468" on="1"/>
        <pt x="620" y="419" on="1"/>
      </contour>
    </TTGlyph>
    <TTGlyph name="o" xMin="147" yMin="278" xMax="525" yMax="515">
      <contour>
        <pt x="439" y="414" on="1"/>
        <pt x="439" y="428" on="0"/>
        <pt x="427" y="462" on="0"/>
        <pt x="410" y="476" on="1"/>
        <pt x="478" y="515" on="1"/>
        <pt x="506" y="489" on="0"/>
        <pt x="525" y="425" on="0"/>
        <pt x="525" y="405" on="1"/>
        <pt x="525" y="278" on="1"/>
        <pt x="513" y="283" on="0"/>
        <pt x="501" y="283" on="1"/>
        <pt x="475" y="283" on="0"/>
        <pt x="439" y="319" on="0"/>
        <pt x="439" y="345" on="1"/>
      </contour>
      <contour>
        <pt x="209" y="283" on="1"/>
        <pt x="183" y="283" on="0"/>
        <pt x="147" y="319" on="0"/>
        <pt x="147" y="345" on="1"/>
        <pt x="147" y="414" on="1"/>
        <pt x="147" y="428" on="0"/>
        <pt x="159" y="462" on="0"/>
        <pt x="176" y="476" on="1"/>
        <pt x="249" y="435" on="1"/>
        <pt x="238" y="424" on="0"/>
        <pt x="233" y="401" on="0"/>
        <pt x="233" y="392" on="1"/>
        <pt x="233" y="278" on="1"/>
        <pt x="220" y="283" on="0"/>
      </contour>
    </TTGlyph>
    <TTGlyph name="one" xMin="172" yMin="279" xMax="258" yMax="690">
      <contour>
        <pt x="172" y="640" on="1"/>
        <pt x="258" y="690" on="1"/>
        <pt x="258" y="279" on="1"/>
        <pt x="246" y="284" on="0"/>
        <pt x="234" y="284" on="1"/>
        <pt x="208" y="284" on="0"/>
        <pt x="172" y="320" on="0"/>
        <pt x="172" y="346" on="1"/>
      </contour>
    </TTGlyph>
    <TTGlyph name="p" xMin="147" yMin="278" xMax="525" yMax="518">
      <contour>
        <pt x="525" y="278" on="1"/>
        <pt x="513" y="283" on="0"/>
        <pt x="501" y="283" on="1"/>
        <pt x="475" y="283" on="0"/>
        <pt x="439" y="319" on="0"/>
        <pt x="439" y="345" on="1"/>
        <pt x="439" y="427" on="1"/>
        <pt x="439" y="460" on="0"/>
        <pt x="419" y="481" on="1"/>
        <pt x="483" y="518" on="1"/>
        <pt x="506" y="495" on="0"/>
        <pt x="525" y="450" on="0"/>
        <pt x="525" y="417" on="1"/>
      </contour>
      <contour>
        <pt x="233" y="278" on="1"/>
        <pt x="223" y="283" on="0"/>
        <pt x="209" y="283" on="1"/>
        <pt x="183" y="283" on="0"/>
        <pt x="147" y="319" on="0"/>
        <pt x="147" y="345" on="1"/>
        <pt x="147" y="502" on="1"/>
        <pt x="233" y="452" on="1"/>
      </contour>
    </TTGlyph>
    <TTGlyph name="parenleft" xMin="118" yMin="279" xMax="291" yMax="647">
      <contour>
        <pt x="185" y="279" on="1"/>
        <pt x="177" y="281" on="0"/>
        <pt x="167" y="281" on="1"/>
        <pt x="147" y="281" on="0"/>
        <pt x="118" y="306" on="0"/>
        <pt x="118" y="330" on="1"/>
        <pt x="118" y="428" on="0"/>
        <pt x="171" y="594" on="0"/>
        <pt x="213" y="642" on="1"/>
        <pt x="291" y="647" on="1"/>
        <pt x="260" y="608" on="0"/>
        <pt x="219" y="531" on="0"/>
        <pt x="195" y="444" on="0"/>
        <pt x="185" y="343" on="0"/>
      </contour>
    </TTGlyph>
    <TTGlyph name="parenright" xMin="114" yMin="277" xMax="281" yMax="729">
      <contour>
        <pt x="120" y="729" on="1"/>
        <pt x="163" y="681" on="0"/>
        <pt x="224" y="590" on="0"/>
        <pt x="263" y="486" on="0"/>
        <pt x="281" y="360" on="0"/>
        <pt x="281" y="277" on="1"/>
        <pt x="272" y="281" on="0"/>
        <pt x="260" y="281" on="1"/>
        <pt x="240" y="281" on="0"/>
        <pt x="209" y="306" on="0"/>
        <pt x="209" y="330" on="1"/>
        <pt x="209" y="379" on="0"/>
        <pt x="195" y="471" on="0"/>
        <pt x="169" y="552" on="0"/>
        <pt x="135" y="618" on="0"/>
        <pt x="114" y="642" on="1"/>
      </contour>
    </TTGlyph>
    <TTGlyph name="percent" xMin="108" yMin="278" xMax="436" yMax="700">
      <contour>
        <pt x="191" y="620" on="1"/>
        <pt x="191" y="655" on="0"/>
        <pt x="167" y="679" on="1"/>
        <pt x="108" y="620" on="1"/>
        <pt x="167" y="561" on="1"/>
        <pt x="179" y="573" on="0"/>
        <pt x="191" y="604" on="0"/>
      </contour>
      <contour>
        <pt x="354" y="650" on="1"/>
        <pt x="436" y="700" on="1"/>
        <pt x="271" y="278" on="1"/>
        <pt x="265" y="286" on="0"/>
        <pt x="258" y="288" on="1"/>
        <pt x="231" y="299" on="0"/>
        <pt x="231" y="327" on="1"/>
        <pt x="231" y="336" on="0"/>
        <pt x="234" y="345" on="1"/>
      </contour>
    </TTGlyph>
    <TTGlyph name="plus" xMin="217" yMin="272" xMax="409" yMax="524">
      <contour>
        <pt x="217" y="332" on="1"/>
        <pt x="217" y="475" on="1"/>
        <pt x="278" y="524" on="1"/>
        <pt x="279" y="381" on="1"/>
      </contour>
      <contour>
        <pt x="409" y="283" on="1"/>
        <pt x="369" y="332" on="1"/>
        <pt x="409" y="381" on="1"/>
      </contour>
      <contour>
        <pt x="278" y="272" on="1"/>
        <pt x="268" y="276" on="0"/>
        <pt x="261" y="276" on="1"/>
        <pt x="243" y="276" on="0"/>
        <pt x="217" y="302" on="0"/>
        <pt x="217" y="320" on="1"/>
        <pt x="217" y="332" on="1"/>
        <pt x="278" y="283" on="1"/>
      </contour>
    </TTGlyph>
    <TTGlyph name="q" xMin="147" yMin="278" xMax="525" yMax="552">
      <contour>
        <pt x="439" y="502" on="1"/>
        <pt x="525" y="552" on="1"/>
        <pt x="525" y="278" on="1"/>
        <pt x="513" y="283" on="0"/>
        <pt x="501" y="283" on="1"/>
        <pt x="475" y="283" on="0"/>
        <pt x="439" y="319" on="0"/>
        <pt x="439" y="345" on="1"/>
      </contour>
      <contour>
        <pt x="147" y="427" on="1"/>
        <pt x="147" y="460" on="0"/>
        <pt x="167" y="481" on="1"/>
        <pt x="241" y="439" on="1"/>
        <pt x="233" y="428" on="0"/>
        <pt x="233" y="413" on="1"/>
        <pt x="233" y="278" on="1"/>
        <pt x="226" y="281" on="0"/>
        <pt x="212" y="283" on="0"/>
        <pt x="209" y="283" on="1"/>
        <pt x="183" y="283" on="0"/>
        <pt x="147" y="319" on="0"/>
        <pt x="147" y="345" on="1"/>
      </contour>
    </TTGlyph>
    <TTGlyph name="question" xMin="132" yMin="249" xMax="510" yMax="663">
      <contour>
        <pt x="220" y="249" on="1"/>
        <pt x="132" y="318" on="1"/>
        <pt x="132" y="345" on="1"/>
        <pt x="132" y="350" on="0"/>
        <pt x="136" y="361" on="0"/>
        <pt x="141" y="364" on="1"/>
        <pt x="228" y="310" on="1"/>
        <pt x="220" y="301" on="0"/>
        <pt x="220" y="285" on="1"/>
      </contour>
      <contour>
        <pt x="218" y="498" on="1"/>
        <pt x="132" y="567" on="1"/>
        <pt x="132" y="580" on="0"/>
        <pt x="140" y="613" on="0"/>
        <pt x="156" y="626" on="1"/>
        <pt x="229" y="586" on="1"/>
        <pt x="221" y="578" on="0"/>
        <pt x="218" y="556" on="0"/>
        <pt x="218" y="550" on="1"/>
      </contour>
      <contour>
        <pt x="424" y="552" on="1"/>
        <pt x="424" y="569" on="0"/>
        <pt x="415" y="607" on="0"/>
        <pt x="395" y="624" on="1"/>
        <pt x="463" y="663" on="1"/>
        <pt x="489" y="639" on="0"/>
        <pt x="510" y="584" on="0"/>
        <pt x="510" y="553" on="1"/>
        <pt x="510" y="432" on="1"/>
        <pt x="510" y="402" on="0"/>
        <pt x="490" y="360" on="0"/>
        <pt x="471" y="346" on="1"/>
        <pt x="402" y="391" on="1"/>
        <pt x="414" y="403" on="0"/>
        <pt x="424" y="433" on="0"/>
        <pt x="424" y="444" on="1"/>
      </contour>
    </TTGlyph>
    <TTGlyph name="quotedbl" xMin="116" yMin="563" xMax="439" yMax="676">
      <contour>
        <pt x="154" y="563" on="1"/>
        <pt x="153" y="578" on="0"/>
        <pt x="145" y="606" on="0"/>
        <pt x="135" y="617" on="1"/>
        <pt x="124" y="617" on="0"/>
        <pt x="116" y="625" on="1"/>
        <pt x="167" y="676" on="1"/>
        <pt x="183" y="660" on="0"/>
        <pt x="197" y="620" on="0"/>
        <pt x="197" y="600" on="1"/>
      </contour>
      <contour>
        <pt x="396" y="563" on="1"/>
        <pt x="395" y="578" on="0"/>
        <pt x="387" y="606" on="0"/>
        <pt x="377" y="617" on="1"/>
        <pt x="366" y="617" on="0"/>
        <pt x="358" y="625" on="1"/>
        <pt x="409" y="676" on="1"/>
        <pt x="425" y="660" on="0"/>
        <pt x="439" y="620" on="0"/>
        <pt x="439" y="600" on="1"/>
      </contour>
    </TTGlyph>
    <TTGlyph name="quotedblleft" xMin="132" yMin="448" xMax="449" yMax="566">
      <contour>
        <pt x="425" y="566" on="1"/>
        <pt x="449" y="542" on="0"/>
        <pt x="449" y="507" on="1"/>
        <pt x="449" y="491" on="0"/>
        <pt x="437" y="460" on="0"/>
        <pt x="425" y="448" on="1"/>
        <pt x="374" y="499" on="1"/>
        <pt x="382" y="507" on="0"/>
        <pt x="393" y="507" on="1"/>
        <pt x="382" y="507" on="0"/>
        <pt x="374" y="515" on="1"/>
      </contour>
      <contour>
        <pt x="183" y="566" on="1"/>
        <pt x="207" y="542" on="0"/>
        <pt x="207" y="507" on="1"/>
        <pt x="207" y="491" on="0"/>
        <pt x="195" y="460" on="0"/>
        <pt x="183" y="448" on="1"/>
        <pt x="132" y="499" on="1"/>
        <pt x="140" y="507" on="0"/>
        <pt x="151" y="507" on="1"/>
        <pt x="140" y="507" on="0"/>
        <pt x="132" y="515" on="1"/>
      </contour>
    </TTGlyph>
    <TTGlyph name="quotedblright" xMin="116" yMin="563" xMax="439" yMax="676">
      <contour>
        <pt x="154" y="563" on="1"/>
        <pt x="153" y="578" on="0"/>
        <pt x="145" y="606" on="0"/>
        <pt x="135" y="617" on="1"/>
        <pt x="124" y="617" on="0"/>
        <pt x="116" y="625" on="1"/>
        <pt x="167" y="676" on="1"/>
        <pt x="183" y="660" on="0"/>
        <pt x="197" y="620" on="0"/>
        <pt x="197" y="600" on="1"/>
      </contour>
      <contour>
        <pt x="396" y="563" on="1"/>
        <pt x="395" y="578" on="0"/>
        <pt x="387" y="606" on="0"/>
        <pt x="377" y="617" on="1"/>
        <pt x="366" y="617" on="0"/>
        <pt x="358" y="625" on="1"/>
        <pt x="409" y="676" on="1"/>
        <pt x="425" y="660" on="0"/>
        <pt x="439" y="620" on="0"/>
        <pt x="439" y="600" on="1"/>
      </contour>
    </TTGlyph>
    <TTGlyph name="quoteleft" xMin="132" yMin="448" xMax="207" yMax="566">
      <contour>
        <pt x="183" y="566" on="1"/>
        <pt x="207" y="542" on="0"/>
        <pt x="207" y="507" on="1"/>
        <pt x="207" y="491" on="0"/>
        <pt x="195" y="460" on="0"/>
        <pt x="183" y="448" on="1"/>
        <pt x="132" y="499" on="1"/>
        <pt x="140" y="507" on="0"/>
        <pt x="151" y="507" on="1"/>
        <pt x="140" y="507" on="0"/>
        <pt x="132" y="515" on="1"/>
      </contour>
    </TTGlyph>
    <TTGlyph name="quoteright" xMin="116" yMin="563" xMax="197" yMax="676">
      <contour>
        <pt x="154" y="563" on="1"/>
        <pt x="153" y="578" on="0"/>
        <pt x="145" y="606" on="0"/>
        <pt x="135" y="617" on="1"/>
        <pt x="124" y="617" on="0"/>
        <pt x="116" y="625" on="1"/>
        <pt x="167" y="676" on="1"/>
        <pt x="183" y="660" on="0"/>
        <pt x="197" y="620" on="0"/>
        <pt x="197" y="600" on="1"/>
        <pt x="154" y="563" on="1"/>
      </contour>
    </TTGlyph>
    <TTGlyph name="quotesingle" xMin="116" yMin="563" xMax="197" yMax="676">
      <contour>
        <pt x="154" y="563" on="1"/>
        <pt x="153" y="578" on="0"/>
        <pt x="145" y="606" on="0"/>
        <pt x="135" y="617" on="1"/>
        <pt x="124" y="617" on="0"/>
        <pt x="116" y="625" on="1"/>
        <pt x="167" y="676" on="1"/>
        <pt x="183" y="660" on="0"/>
        <pt x="197" y="620" on="0"/>
        <pt x="197" y="600" on="1"/>
        <pt x="154" y="563" on="1"/>
      </contour>
    </TTGlyph>
    <TTGlyph name="r" xMin="147" yMin="278" xMax="396" yMax="552">
      <contour>
        <pt x="396" y="552" on="1"/>
        <pt x="396" y="442" on="1"/>
        <pt x="351" y="497" on="1"/>
      </contour>
      <contour>
        <pt x="147" y="482" on="1"/>
        <pt x="233" y="552" on="1"/>
        <pt x="233" y="505" on="1"/>
        <pt x="210" y="485" on="0"/>
        <pt x="178" y="442" on="0"/>
        <pt x="167" y="423" on="1"/>
        <pt x="155" y="401" on="0"/>
        <pt x="147" y="380" on="1"/>
      </contour>
      <contour>
        <pt x="147" y="380" on="1"/>
        <pt x="233" y="357" on="1"/>
        <pt x="233" y="278" on="1"/>
        <pt x="223" y="283" on="0"/>
        <pt x="209" y="283" on="1"/>
        <pt x="183" y="283" on="0"/>
        <pt x="147" y="319" on="0"/>
        <pt x="147" y="345" on="1"/>
      </contour>
    </TTGlyph>
    <TTGlyph name="s" xMin="92" yMin="307" xMax="353" yMax="552">
      <contour>
        <pt x="353" y="552" on="1"/>
        <pt x="353" y="452" on="1"/>
        <pt x="313" y="502" on="1"/>
      </contour>
      <contour>
        <pt x="183" y="438" on="1"/>
        <pt x="175" y="428" on="0"/>
        <pt x="175" y="416" on="1"/>
        <pt x="175" y="391" on="0"/>
        <pt x="217" y="356" on="0"/>
        <pt x="244" y="335" on="1"/>
        <pt x="239" y="332" on="0"/>
        <pt x="234" y="327" on="0"/>
        <pt x="232" y="325" on="1"/>
        <pt x="217" y="307" on="0"/>
        <pt x="196" y="307" on="1"/>
        <pt x="177" y="307" on="0"/>
        <pt x="159" y="323" on="1"/>
        <pt x="133" y="346" on="0"/>
        <pt x="92" y="397" on="0"/>
        <pt x="92" y="430" on="1"/>
        <pt x="92" y="444" on="0"/>
        <pt x="104" y="470" on="0"/>
        <pt x="112" y="478" on="1"/>
        <pt x="126" y="470" on="0"/>
        <pt x="152" y="455" on="0"/>
        <pt x="162" y="450" on="1"/>
        <pt x="173" y="444" on="0"/>
      </contour>
    </TTGlyph>
    <TTGlyph name="semicolon" xMin="126" yMin="400" xMax="201" yMax="518">
      <contour>
        <pt x="177" y="518" on="1"/>
        <pt x="201" y="494" on="0"/>
        <pt x="201" y="459" on="1"/>
        <pt x="201" y="443" on="0"/>
        <pt x="189" y="412" on="0"/>
        <pt x="177" y="400" on="1"/>
        <pt x="126" y="451" on="1"/>
        <pt x="134" y="459" on="0"/>
        <pt x="145" y="459" on="1"/>
        <pt x="134" y="459" on="0"/>
        <pt x="126" y="467" on="1"/>
      </contour>
    </TTGlyph>
    <TTGlyph name="seven" xMin="235" yMin="242" xMax="464" yMax="690">
      <contour>
        <pt x="464" y="564" on="1"/>
        <pt x="445" y="552" on="0"/>
        <pt x="391" y="489" on="0"/>
        <pt x="338" y="402" on="0"/>
        <pt x="293" y="297" on="0"/>
        <pt x="283" y="242" on="1"/>
        <pt x="257" y="253" on="0"/>
        <pt x="235" y="283" on="0"/>
        <pt x="235" y="303" on="1"/>
        <pt x="235" y="312" on="0"/>
        <pt x="238" y="323" on="1"/>
        <pt x="265" y="404" on="0"/>
        <pt x="359" y="562" on="0"/>
        <pt x="423" y="640" on="1"/>
        <pt x="464" y="690" on="1"/>
      </contour>
    </TTGlyph>
    <TTGlyph name="six" xMin="147" yMin="278" xMax="525" yMax="663">
      <contour>
        <pt x="525" y="278" on="1"/>
        <pt x="513" y="283" on="0"/>
        <pt x="501" y="283" on="1"/>
        <pt x="475" y="283" on="0"/>
        <pt x="439" y="319" on="0"/>
        <pt x="439" y="345" on="1"/>
        <pt x="439" y="352" on="0"/>
        <pt x="429" y="372" on="0"/>
        <pt x="419" y="380" on="1"/>
        <pt x="488" y="421" on="1"/>
        <pt x="512" y="404" on="0"/>
        <pt x="525" y="357" on="0"/>
        <pt x="525" y="330" on="1"/>
      </contour>
      <contour>
        <pt x="233" y="443" on="1"/>
        <pt x="147" y="393" on="1"/>
        <pt x="147" y="552" on="1"/>
        <pt x="147" y="569" on="0"/>
        <pt x="156" y="607" on="0"/>
        <pt x="176" y="624" on="1"/>
        <pt x="244" y="586" on="1"/>
        <pt x="236" y="578" on="0"/>
        <pt x="233" y="556" on="0"/>
        <pt x="233" y="550" on="1"/>
      </contour>
      <contour>
        <pt x="209" y="283" on="1"/>
        <pt x="183" y="283" on="0"/>
        <pt x="147" y="319" on="0"/>
        <pt x="147" y="345" on="1"/>
        <pt x="147" y="393" on="1"/>
        <pt x="233" y="343" on="1"/>
        <pt x="233" y="278" on="1"/>
        <pt x="226" y="281" on="0"/>
        <pt x="214" y="283" on="0"/>
      </contour>
      <contour>
        <pt x="439" y="574" on="1"/>
        <pt x="439" y="575" on="0"/>
        <pt x="437" y="587" on="0"/>
        <pt x="432" y="603" on="0"/>
        <pt x="423" y="620" on="0"/>
        <pt x="415" y="626" on="1"/>
        <pt x="478" y="663" on="1"/>
        <pt x="492" y="651" on="0"/>
        <pt x="510" y="621" on="0"/>
        <pt x="521" y="590" on="0"/>
        <pt x="525" y="562" on="0"/>
        <pt x="525" y="553" on="1"/>
        <pt x="525" y="505" on="1"/>
      </contour>
    </TTGlyph>
    <TTGlyph name="slash" xMin="225" yMin="278" xMax="430" yMax="700">
      <contour>
        <pt x="348" y="650" on="1"/>
        <pt x="430" y="700" on="1"/>
        <pt x="265" y="278" on="1"/>
        <pt x="259" y="286" on="0"/>
        <pt x="252" y="288" on="1"/>
        <pt x="225" y="299" on="0"/>
        <pt x="225" y="327" on="1"/>
        <pt x="225" y="336" on="0"/>
        <pt x="228" y="345" on="1"/>
      </contour>
    </TTGlyph>
    <TTGlyph name="t" xMin="195" yMin="278" xMax="379" yMax="700">
      <contour>
        <pt x="281" y="278" on="1"/>
        <pt x="269" y="283" on="0"/>
        <pt x="257" y="283" on="1"/>
        <pt x="231" y="283" on="0"/>
        <pt x="195" y="319" on="0"/>
        <pt x="195" y="345" on="1"/>
        <pt x="195" y="502" on="1"/>
        <pt x="281" y="452" on="1"/>
      </contour>
      <contour>
        <pt x="339" y="502" on="1"/>
        <pt x="379" y="552" on="1"/>
        <pt x="379" y="452" on="1"/>
      </contour>
      <contour>
        <pt x="195" y="631" on="1"/>
        <pt x="281" y="700" on="1"/>
        <pt x="281" y="552" on="1"/>
        <pt x="195" y="502" on="1"/>
      </contour>
    </TTGlyph>
    <TTGlyph name="three" xMin="121" yMin="278" xMax="499" yMax="663">
      <contour>
        <pt x="481" y="360" on="1"/>
        <pt x="492" y="347" on="0"/>
        <pt x="499" y="321" on="0"/>
        <pt x="499" y="306" on="1"/>
        <pt x="499" y="278" on="1"/>
        <pt x="489" y="283" on="0"/>
        <pt x="475" y="283" on="1"/>
        <pt x="449" y="283" on="0"/>
        <pt x="413" y="319" on="0"/>
        <pt x="413" y="345" on="1"/>
      </contour>
      <contour>
        <pt x="499" y="480" on="1"/>
        <pt x="499" y="469" on="0"/>
        <pt x="493" y="440" on="0"/>
        <pt x="482" y="427" on="1"/>
        <pt x="413" y="441" on="1"/>
        <pt x="413" y="552" on="1"/>
        <pt x="413" y="573" on="0"/>
        <pt x="401" y="609" on="0"/>
        <pt x="384" y="624" on="1"/>
        <pt x="452" y="663" on="1"/>
        <pt x="467" y="651" on="0"/>
        <pt x="485" y="620" on="0"/>
        <pt x="495" y="589" on="0"/>
        <pt x="499" y="560" on="0"/>
        <pt x="499" y="550" on="1"/>
      </contour>
      <contour>
        <pt x="207" y="505" on="1"/>
        <pt x="121" y="574" on="1"/>
        <pt x="121" y="575" on="0"/>
        <pt x="123" y="587" on="0"/>
        <pt x="128" y="603" on="0"/>
        <pt x="137" y="620" on="0"/>
        <pt x="145" y="626" on="1"/>
        <pt x="218" y="586" on="1"/>
        <pt x="210" y="578" on="0"/>
        <pt x="207" y="556" on="0"/>
        <pt x="207" y="550" on="1"/>
      </contour>
    </TTGlyph>
    <TTGlyph name="two" xMin="111" yMin="226" xMax="489" yMax="663">
      <contour>
        <pt x="197" y="505" on="1"/>
        <pt x="111" y="574" on="1"/>
        <pt x="111" y="575" on="0"/>
        <pt x="113" y="587" on="0"/>
        <pt x="118" y="603" on="0"/>
        <pt x="127" y="620" on="0"/>
        <pt x="135" y="626" on="1"/>
        <pt x="208" y="586" on="1"/>
        <pt x="200" y="578" on="0"/>
        <pt x="197" y="556" on="0"/>
        <pt x="197" y="550" on="1"/>
      </contour>
      <contour>
        <pt x="489" y="511" on="1"/>
        <pt x="489" y="487" on="0"/>
        <pt x="479" y="442" on="0"/>
        <pt x="455" y="398" on="0"/>
        <pt x="412" y="354" on="0"/>
        <pt x="379" y="331" on="1"/>
        <pt x="362" y="319" on="0"/>
        <pt x="317" y="287" on="0"/>
        <pt x="275" y="256" on="0"/>
        <pt x="242" y="230" on="0"/>
        <pt x="238" y="226" on="1"/>
        <pt x="236" y="228" on="1"/>
        <pt x="219" y="247" on="0"/>
        <pt x="220" y="298" on="0"/>
        <pt x="239" y="315" on="1"/>
        <pt x="251" y="327" on="0"/>
        <pt x="306" y="365" on="0"/>
        <pt x="361" y="410" on="0"/>
        <pt x="403" y="456" on="0"/>
        <pt x="403" y="476" on="1"/>
        <pt x="403" y="552" on="1"/>
        <pt x="403" y="569" on="0"/>
        <pt x="394" y="607" on="0"/>
        <pt x="374" y="624" on="1"/>
        <pt x="442" y="663" on="1"/>
        <pt x="465" y="640" on="0"/>
        <pt x="487" y="591" on="0"/>
        <pt x="489" y="563" on="1"/>
      </contour>
    </TTGlyph>
    <TTGlyph name="u" xMin="147" yMin="277" xMax="525" yMax="552">
      <contour>
        <pt x="147" y="482" on="1"/>
        <pt x="233" y="552" on="1"/>
        <pt x="233" y="278" on="1"/>
        <pt x="221" y="283" on="0"/>
        <pt x="209" y="283" on="1"/>
        <pt x="183" y="283" on="0"/>
        <pt x="147" y="319" on="0"/>
        <pt x="147" y="345" on="1"/>
      </contour>
      <contour>
        <pt x="439" y="482" on="1"/>
        <pt x="525" y="552" on="1"/>
        <pt x="525" y="277" on="1"/>
        <pt x="515" y="282" on="0"/>
        <pt x="501" y="282" on="1"/>
        <pt x="475" y="282" on="0"/>
        <pt x="439" y="318" on="0"/>
        <pt x="439" y="344" on="1"/>
      </contour>
    </TTGlyph>
    <TTGlyph name="v" xMin="128" yMin="253" xMax="573" yMax="552">
      <contour>
        <pt x="260" y="313" on="1"/>
        <pt x="250" y="313" on="0"/>
        <pt x="240" y="309" on="1"/>
        <pt x="236" y="307" on="0"/>
        <pt x="225" y="304" on="0"/>
        <pt x="219" y="304" on="1"/>
        <pt x="200" y="304" on="0"/>
        <pt x="170" y="326" on="0"/>
        <pt x="163" y="345" on="1"/>
        <pt x="128" y="483" on="1"/>
        <pt x="201" y="552" on="1"/>
      </contour>
      <contour>
        <pt x="470" y="483" on="1"/>
        <pt x="573" y="552" on="1"/>
        <pt x="494" y="253" on="1"/>
        <pt x="487" y="262" on="0"/>
        <pt x="474" y="267" on="1"/>
        <pt x="455" y="273" on="0"/>
        <pt x="433" y="304" on="0"/>
        <pt x="433" y="323" on="1"/>
        <pt x="433" y="328" on="0"/>
        <pt x="433" y="340" on="0"/>
        <pt x="435" y="345" on="1"/>
      </contour>
    </TTGlyph>
    <TTGlyph name="w" xMin="147" yMin="278" xMax="817" yMax="552">
      <contour>
        <pt x="525" y="279" on="1"/>
        <pt x="516" y="283" on="0"/>
        <pt x="501" y="283" on="1"/>
        <pt x="475" y="283" on="0"/>
        <pt x="439" y="319" on="0"/>
        <pt x="439" y="345" on="1"/>
        <pt x="439" y="482" on="1"/>
        <pt x="525" y="552" on="1"/>
      </contour>
      <contour>
        <pt x="233" y="278" on="1"/>
        <pt x="221" y="283" on="0"/>
        <pt x="209" y="283" on="1"/>
        <pt x="183" y="283" on="0"/>
        <pt x="147" y="319" on="0"/>
        <pt x="147" y="345" on="1"/>
        <pt x="147" y="482" on="1"/>
        <pt x="233" y="552" on="1"/>
      </contour>
      <contour>
        <pt x="817" y="278" on="1"/>
        <pt x="805" y="283" on="0"/>
        <pt x="793" y="283" on="1"/>
        <pt x="767" y="283" on="0"/>
        <pt x="731" y="319" on="0"/>
        <pt x="731" y="345" on="1"/>
        <pt x="731" y="482" on="1"/>
        <pt x="817" y="552" on="1"/>
      </contour>
    </TTGlyph>
    <TTGlyph name="x" xMin="220" yMin="278" xMax="501" yMax="552">
      <contour>
        <pt x="501" y="452" on="1"/>
        <pt x="461" y="502" on="1"/>
        <pt x="501" y="552" on="1"/>
      </contour>
      <contour>
        <pt x="263" y="443" on="1"/>
        <pt x="265" y="450" on="0"/>
        <pt x="270" y="459" on="1"/>
        <pt x="275" y="466" on="0"/>
        <pt x="292" y="484" on="0"/>
        <pt x="306" y="493" on="1"/>
        <pt x="357" y="441" on="1"/>
        <pt x="349" y="432" on="0"/>
        <pt x="349" y="413" on="1"/>
        <pt x="349" y="278" on="1"/>
        <pt x="337" y="283" on="0"/>
        <pt x="325" y="283" on="1"/>
        <pt x="299" y="283" on="0"/>
        <pt x="263" y="319" on="0"/>
        <pt x="263" y="345" on="1"/>
      </contour>
      <contour>
        <pt x="263" y="443" on="1"/>
        <pt x="261" y="450" on="0"/>
        <pt x="256" y="459" on="1"/>
        <pt x="251" y="466" on="0"/>
        <pt x="234" y="484" on="0"/>
        <pt x="220" y="493" on="1"/>
        <pt x="247" y="520" on="1"/>
        <pt x="253" y="511" on="0"/>
        <pt x="259" y="485" on="0"/>
        <pt x="261" y="473" on="1"/>
        <pt x="263" y="459" on="0"/>
      </contour>
    </TTGlyph>
    <TTGlyph name="y" xMin="147" yMin="278" xMax="525" yMax="552">
      <contour>
        <pt x="439" y="483" on="1"/>
        <pt x="525" y="552" on="1"/>
        <pt x="525" y="278" on="1"/>
        <pt x="513" y="283" on="0"/>
        <pt x="501" y="283" on="1"/>
        <pt x="475" y="283" on="0"/>
        <pt x="439" y="319" on="0"/>
        <pt x="439" y="345" on="1"/>
      </contour>
      <contour>
        <pt x="147" y="483" on="1"/>
        <pt x="233" y="552" on="1"/>
        <pt x="233" y="278" on="1"/>
        <pt x="221" y="283" on="0"/>
        <pt x="209" y="283" on="1"/>
        <pt x="183" y="283" on="0"/>
        <pt x="147" y="319" on="0"/>
        <pt x="147" y="345" on="1"/>
      </contour>
    </TTGlyph>
    <TTGlyph name="z" xMin="239" yMin="263" xMax="391" yMax="552">
      <contour>
        <pt x="293" y="263" on="1"/>
        <pt x="289" y="265" on="1"/>
        <pt x="287" y="266" on="0"/>
        <pt x="283" y="268" on="0"/>
        <pt x="280" y="270" on="1"/>
        <pt x="256" y="278" on="0"/>
        <pt x="239" y="322" on="0"/>
        <pt x="246" y="345" on="1"/>
        <pt x="309" y="502" on="1"/>
        <pt x="391" y="552" on="1"/>
      </contour>
    </TTGlyph>
    <TTGlyph name="zero" xMin="145" yMin="277" xMax="525" yMax="662">
      <contour>
        <pt x="244" y="585" on="1"/>
        <pt x="236" y="577" on="0"/>
        <pt x="234" y="568" on="1"/>
        <pt x="233" y="564" on="0"/>
        <pt x="233" y="559" on="1"/>
        <pt x="233" y="277" on="1"/>
        <pt x="221" y="282" on="0"/>
        <pt x="209" y="282" on="1"/>
        <pt x="183" y="282" on="0"/>
        <pt x="145" y="318" on="0"/>
        <pt x="147" y="344" on="1"/>
        <pt x="147" y="558" on="1"/>
        <pt x="147" y="572" on="0"/>
        <pt x="159" y="610" on="0"/>
        <pt x="177" y="626" on="1"/>
      </contour>
      <contour>
        <pt x="525" y="277" on="1"/>
        <pt x="515" y="282" on="0"/>
        <pt x="501" y="282" on="1"/>
        <pt x="475" y="282" on="0"/>
        <pt x="439" y="318" on="0"/>
        <pt x="439" y="344" on="1"/>
        <pt x="439" y="558" on="1"/>
        <pt x="439" y="572" on="0"/>
        <pt x="427" y="610" on="0"/>
        <pt x="409" y="626" on="1"/>
        <pt x="469" y="662" on="1"/>
        <pt x="498" y="639" on="0"/>
        <pt x="525" y="573" on="0"/>
        <pt x="525" y="543" on="1"/>
      </contour>
    </TTGlyph>
</ttFont>
